<svg width="24" height="24" viewBox="0 0 24 24" fill="none" xmlns="http://www.w3.org/2000/svg">
<path fill-rule="evenodd" clip-rule="evenodd" d="M4.5966 5.4301C4.79195 5.23475 5.0569 5.125 5.33317 5.125H18.6665C18.9428 5.125 19.2077 5.23475 19.4031 5.4301C19.5984 5.62545 19.7082 5.8904 19.7082 6.16667V14.5C19.7082 14.7763 19.5984 15.0412 19.4031 15.2366C19.2077 15.4319 18.9428 15.5417 18.6665 15.5417H17.8332C17.488 15.5417 17.2082 15.8215 17.2082 16.1667C17.2082 16.5118 17.488 16.7917 17.8332 16.7917H18.6665C19.2743 16.7917 19.8572 16.5502 20.287 16.1205C20.7167 15.6907 20.9582 15.1078 20.9582 14.5V6.16667C20.9582 5.55888 20.7167 4.97598 20.287 4.54621C19.8572 4.11644 19.2743 3.875 18.6665 3.875H5.33317C4.72538 3.875 4.14249 4.11644 3.71272 4.54621C3.28295 4.97598 3.0415 5.55888 3.0415 6.16667V14.5C3.0415 15.1078 3.28295 15.6907 3.71272 16.1205C4.14249 16.5502 4.72538 16.7917 5.33317 16.7917H6.1665C6.51168 16.7917 6.7915 16.5118 6.7915 16.1667C6.7915 15.8215 6.51168 15.5417 6.1665 15.5417H5.33317C5.0569 15.5417 4.79195 15.4319 4.5966 15.2366C4.40125 15.0412 4.2915 14.7763 4.2915 14.5V6.16667C4.2915 5.8904 4.40125 5.62545 4.5966 5.4301ZM12.4803 14.0999C12.3616 13.9574 12.1856 13.875 12.0002 13.875C11.8147 13.875 11.6388 13.9574 11.52 14.0999L7.35336 19.0999C7.19811 19.2862 7.16464 19.5455 7.2675 19.7651C7.37037 19.9847 7.59098 20.125 7.8335 20.125H16.1668C16.4093 20.125 16.63 19.9847 16.7328 19.7651C16.8357 19.5455 16.8022 19.2862 16.647 19.0999L12.4803 14.0999ZM12.0002 15.4763L14.8324 18.875H9.1679L12.0002 15.4763Z" fill="black"/>
</svg>
