<svg viewBox="0 0 24 24" xmlns="http://www.w3.org/2000/svg">
<path fill="currentColor" stroke="currentColor" stroke-linecap="round" stroke-linejoin="round" d="M10.8759 4.08429C11.2191 3.89106 11.6063 3.78955 12.0001 3.78955C12.394 3.78955 12.7812 3.89106 13.1244 4.08429C13.4676 4.27752 13.7552 4.55594 13.9595 4.89269L13.9613 4.89566L13.9613 4.89567L21.0196 16.679L21.0248 16.6876L21.0247 16.6876C21.2248 17.0342 21.3307 17.427 21.3318 17.8272C21.3329 18.2273 21.2293 18.6208 21.0311 18.9684C20.8329 19.3161 20.5472 19.6058 20.2023 19.8087C19.8575 20.0116 19.4655 20.1207 19.0653 20.1251L19.0585 20.1252V20.1252H4.94181H4.93494L4.93494 20.1251C4.53481 20.1207 4.14281 20.0116 3.79794 19.8087C3.45306 19.6058 3.16733 19.3161 2.96918 18.9684C2.77102 18.6208 2.66735 18.2273 2.66847 17.8272C2.66959 17.427 2.77546 17.0342 2.97556 16.6876L2.98057 16.679L2.98064 16.679L10.039 4.89567L10.0408 4.89269L10.0408 4.89269C10.245 4.55594 10.5326 4.27752 10.8759 4.08429ZM12.0001 5.03955C11.8211 5.03955 11.6451 5.08569 11.4891 5.17352C11.3336 5.2611 11.2031 5.38717 11.1103 5.53964L11.1095 5.54098L4.05585 17.3165C3.96632 17.4731 3.91897 17.6503 3.91846 17.8307C3.91795 18.0126 3.96508 18.1914 4.05515 18.3494C4.14522 18.5075 4.2751 18.6391 4.43186 18.7314C4.58776 18.8231 4.76485 18.8727 4.94568 18.8752H19.0546C19.2354 18.8727 19.4125 18.8231 19.5684 18.7314C19.7252 18.6391 19.8551 18.5075 19.9451 18.3494C20.0352 18.1914 20.0823 18.0126 20.0818 17.8307C20.0813 17.6503 20.034 17.4731 19.9444 17.3165L12.8908 5.54098L12.89 5.53969C12.7972 5.3872 12.6667 5.26111 12.5112 5.17352C12.3552 5.08569 12.1792 5.03955 12.0001 5.03955ZM12 8.875C12.3452 8.875 12.625 9.15482 12.625 9.5V12.8333C12.625 13.1785 12.3452 13.4583 12 13.4583C11.6548 13.4583 11.375 13.1785 11.375 12.8333V9.5C11.375 9.15482 11.6548 8.875 12 8.875ZM12 15.5415C11.6548 15.5415 11.375 15.8213 11.375 16.1665C11.375 16.5117 11.6548 16.7915 12 16.7915H12.0083C12.3535 16.7915 12.6333 16.5117 12.6333 16.1665C12.6333 15.8213 12.3535 15.5415 12.0083 15.5415H12Z" fill="black"/>
</svg>
