<svg viewBox="0 0 24 24" xmlns="http://www.w3.org/2000/svg">
<path fill="currentColor" stroke="currentColor" stroke-linecap="round" stroke-linejoin="round" d="M11.9998 4.2915C7.74264 4.2915 4.2915 7.74264 4.2915 11.9998C4.2915 16.257 7.74264 19.7082 11.9998 19.7082C16.257 19.7082 19.7082 16.257 19.7082 11.9998C19.7082 7.74264 16.257 4.2915 11.9998 4.2915ZM3.0415 11.9998C3.0415 7.05229 7.05229 3.0415 11.9998 3.0415C16.9474 3.0415 20.9582 7.05229 20.9582 11.9998C20.9582 16.9474 16.9474 20.9582 11.9998 20.9582C7.05229 20.9582 3.0415 16.9474 3.0415 11.9998ZM12 8.0415C12.3452 8.0415 12.625 8.32133 12.625 8.6665V11.9998C12.625 12.345 12.3452 12.6248 12 12.6248C11.6548 12.6248 11.375 12.345 11.375 11.9998V8.6665C11.375 8.32133 11.6548 8.0415 12 8.0415ZM12 14.7085C11.6548 14.7085 11.375 14.9883 11.375 15.3335C11.375 15.6787 11.6548 15.9585 12 15.9585H12.0083C12.3535 15.9585 12.6333 15.6787 12.6333 15.3335C12.6333 14.9883 12.3535 14.7085 12.0083 14.7085H12Z" fill="black"/>
</svg>
