<svg width="24" height="24" viewBox="0 0 24 24" fill="none" xmlns="http://www.w3.org/2000/svg">
<path fill-rule="evenodd" clip-rule="evenodd" d="M8.1079 3.22456C8.22511 3.10735 8.38408 3.0415 8.54984 3.0415H15.4498C15.6156 3.0415 15.7746 3.10735 15.8918 3.22456L20.7751 8.1079C20.8923 8.22511 20.9582 8.38408 20.9582 8.54984V15.4498C20.9582 15.6156 20.8923 15.7746 20.7751 15.8918L15.8918 20.7751C15.7746 20.8923 15.6156 20.9582 15.4498 20.9582H8.54984C8.38408 20.9582 8.22511 20.8923 8.1079 20.7751L3.22456 15.8918C3.10735 15.7746 3.0415 15.6156 3.0415 15.4498V8.54984C3.0415 8.38408 3.10735 8.22511 3.22456 8.1079L8.1079 3.22456ZM8.80872 4.2915L4.2915 8.80872V15.191L8.80872 19.7082H15.191L19.7082 15.191V8.80872L15.191 4.2915H8.80872ZM12 8.0415C12.3452 8.0415 12.625 8.32133 12.625 8.6665V11.9998C12.625 12.345 12.3452 12.6248 12 12.6248C11.6548 12.6248 11.375 12.345 11.375 11.9998V8.6665C11.375 8.32133 11.6548 8.0415 12 8.0415ZM12 14.7085C11.6548 14.7085 11.375 14.9883 11.375 15.3335C11.375 15.6787 11.6548 15.9585 12 15.9585H12.0083C12.3535 15.9585 12.6333 15.6787 12.6333 15.3335C12.6333 14.9883 12.3535 14.7085 12.0083 14.7085H12Z" fill="black"/>
</svg>
