<svg viewBox="0 0 24 24" xmlns="http://www.w3.org/2000/svg">
<path fill="currentColor" stroke="currentColor" stroke-linecap="round" stroke-linejoin="round" d="M4.5 6.375C4.15482 6.375 3.875 6.65482 3.875 7C3.875 7.34518 4.15482 7.625 4.5 7.625H19.5C19.8452 7.625 20.125 7.34518 20.125 7C20.125 6.65482 19.8452 6.375 19.5 6.375H4.5ZM4.5 9.7085C4.15482 9.7085 3.875 9.98832 3.875 10.3335C3.875 10.6787 4.15482 10.9585 4.5 10.9585H19.5C19.8452 10.9585 20.125 10.6787 20.125 10.3335C20.125 9.98832 19.8452 9.7085 19.5 9.7085H4.5ZM3.875 13.6665C3.875 13.3213 4.15482 13.0415 4.5 13.0415H19.5C19.8452 13.0415 20.125 13.3213 20.125 13.6665C20.125 14.0117 19.8452 14.2915 19.5 14.2915H4.5C4.15482 14.2915 3.875 14.0117 3.875 13.6665ZM4.5 16.375C4.15482 16.375 3.875 16.6548 3.875 17C3.875 17.3452 4.15482 17.625 4.5 17.625H19.5C19.8452 17.625 20.125 17.3452 20.125 17C20.125 16.6548 19.8452 16.375 19.5 16.375H4.5Z" fill="black"/>
</svg>
