<svg viewBox="0 0 24 24" xmlns="http://www.w3.org/2000/svg">
<path fill="currentColor" stroke="currentColor" stroke-linecap="round" stroke-linejoin="round" d="M4.5 6.375C4.15482 6.375 3.875 6.65482 3.875 7C3.875 7.34518 4.15482 7.625 4.5 7.625H19.5C19.8452 7.625 20.125 7.34518 20.125 7C20.125 6.65482 19.8452 6.375 19.5 6.375H4.5ZM7.8335 9.7085C7.48832 9.7085 7.2085 9.98832 7.2085 10.3335C7.2085 10.6787 7.48832 10.9585 7.8335 10.9585H19.5002C19.8453 10.9585 20.1252 10.6787 20.1252 10.3335C20.1252 9.98832 19.8453 9.7085 19.5002 9.7085H7.8335ZM3.875 13.6665C3.875 13.3213 4.15482 13.0415 4.5 13.0415H19.5C19.8452 13.0415 20.125 13.3213 20.125 13.6665C20.125 14.0117 19.8452 14.2915 19.5 14.2915H4.5C4.15482 14.2915 3.875 14.0117 3.875 13.6665ZM7.8335 16.375C7.48832 16.375 7.2085 16.6548 7.2085 17C7.2085 17.3452 7.48832 17.625 7.8335 17.625H19.5002C19.8453 17.625 20.1252 17.3452 20.1252 17C20.1252 16.6548 19.8453 16.375 19.5002 16.375H7.8335Z" fill="black"/>
</svg>
