<svg viewBox="0 0 24 24" xmlns="http://www.w3.org/2000/svg">
<path fill="currentColor" stroke="currentColor" stroke-linecap="round" stroke-linejoin="round" d="M4.5 6.375C4.15482 6.375 3.875 6.65482 3.875 7C3.875 7.34518 4.15482 7.625 4.5 7.625H19.5C19.8452 7.625 20.125 7.34518 20.125 7C20.125 6.65482 19.8452 6.375 19.5 6.375H4.5ZM7 9.7085C6.65482 9.7085 6.375 9.98832 6.375 10.3335C6.375 10.6787 6.65482 10.9585 7 10.9585H17C17.3452 10.9585 17.625 10.6787 17.625 10.3335C17.625 9.98832 17.3452 9.7085 17 9.7085H7ZM3.875 13.6665C3.875 13.3213 4.15482 13.0415 4.5 13.0415H19.5C19.8452 13.0415 20.125 13.3213 20.125 13.6665C20.125 14.0117 19.8452 14.2915 19.5 14.2915H4.5C4.15482 14.2915 3.875 14.0117 3.875 13.6665ZM7 16.375C6.65482 16.375 6.375 16.6548 6.375 17C6.375 17.3452 6.65482 17.625 7 17.625H17C17.3452 17.625 17.625 17.3452 17.625 17C17.625 16.6548 17.3452 16.375 17 16.375H7Z" fill="black"/>
</svg>
