<svg width="24" height="24" viewBox="0 0 24 24" fill="none" xmlns="http://www.w3.org/2000/svg">
<path fill-rule="evenodd" clip-rule="evenodd" d="M12 4.2915C10.9645 4.2915 10.125 5.13097 10.125 6.1665C10.125 7.20204 10.9645 8.0415 12 8.0415C13.0355 8.0415 13.875 7.20204 13.875 6.1665C13.875 5.13097 13.0355 4.2915 12 4.2915ZM15.125 6.1665C15.125 7.67835 14.0514 8.93945 12.625 9.22899V19.683C14.4405 19.5353 16.1529 18.7481 17.4505 17.4506C18.748 16.1531 19.5352 14.4406 19.6828 12.625H17.8332C17.488 12.625 17.2082 12.3452 17.2082 12C17.2082 11.6548 17.488 11.375 17.8332 11.375H20.3332C20.6783 11.375 20.9582 11.6548 20.9582 12C20.9582 14.3759 20.0143 16.6545 18.3343 18.3345C16.6543 20.0145 14.3757 20.9583 11.9998 20.9583C9.62394 20.9583 7.34535 20.0145 5.66534 18.3345C3.98533 16.6545 3.0415 14.3759 3.0415 12C3.0415 11.8342 3.10735 11.6753 3.22456 11.5581C3.34177 11.4408 3.50074 11.375 3.6665 11.375H6.1665C6.51168 11.375 6.7915 11.6548 6.7915 12C6.7915 12.3452 6.51168 12.625 6.1665 12.625H4.31686C4.46449 14.4406 5.25167 16.1531 6.54922 17.4506C7.84681 18.7482 9.55938 19.5354 11.375 19.683V9.22899C9.9486 8.93945 8.875 7.67835 8.875 6.1665C8.875 4.44061 10.2741 3.0415 12 3.0415C13.7259 3.0415 15.125 4.44061 15.125 6.1665Z" fill="black"/>
</svg>
