<svg viewBox="0 0 24 24" xmlns="http://www.w3.org/2000/svg">
<path fill="currentColor" stroke="currentColor" stroke-linecap="round" stroke-linejoin="round" d="M11.1576 8.0415L13.2636 4.39459C15.5369 4.76951 17.4749 6.13913 18.6156 8.0415H13.9356L13.9237 8.0414L13.9128 8.0415H11.1576ZM8.87175 11.9999L10.4358 9.2915H13.564L15.1283 12.0004L13.5644 14.7085H10.4359L8.87175 11.9999ZM12.8426 15.9585H5.38429C6.52511 17.8609 8.46326 19.2304 10.7368 19.6052L12.8426 15.9585ZM11.0476 20.9082C11.3605 20.9412 11.6782 20.9582 11.9998 20.9582C14.9321 20.9582 17.5353 19.5494 19.1695 17.3717C19.199 17.3395 19.2246 17.3046 19.2464 17.2677C20.323 15.7892 20.9582 13.9687 20.9582 11.9998C20.9582 10.744 20.6998 9.54859 20.2332 8.46376C20.2222 8.43156 20.2086 8.40055 20.1927 8.37097C18.935 5.53557 16.2485 3.47474 13.0469 3.10204C13.0174 3.0966 12.9878 3.09333 12.9583 3.09217C12.6434 3.05868 12.3236 3.0415 11.9998 3.0415C9.06775 3.0415 6.46467 4.45015 4.83043 6.62762C4.80076 6.66 4.77489 6.69514 4.753 6.73235C3.67656 8.21073 3.0415 10.0311 3.0415 11.9998C3.0415 13.2578 3.30081 14.4553 3.76889 15.5416C3.77895 15.5701 3.791 15.5976 3.8049 15.624C5.0611 18.4603 7.74657 20.5225 10.9477 20.897C10.9809 20.9035 11.0143 20.9072 11.0476 20.9082ZM12.1213 19.7072L15.85 13.2502L17.9547 16.8949C16.5648 18.5837 14.4706 19.6709 12.1213 19.7072ZM16.4032 11.7086L18.7365 15.7491C19.3555 14.6394 19.7082 13.3608 19.7082 11.9998C19.7082 11.0468 19.5352 10.1341 19.2189 9.2915H15.0074L16.3784 11.6657C16.3873 11.6797 16.3956 11.694 16.4032 11.7086ZM4.2915 11.9998C4.2915 12.953 4.46452 13.8658 4.78085 14.7085H8.9924L7.61901 12.3302C7.61205 12.319 7.60547 12.3076 7.59926 12.296L5.26317 8.25055C4.6442 9.36032 4.2915 10.6389 4.2915 11.9998ZM8.15002 10.7501L11.8791 4.29243C9.52953 4.32851 7.43497 5.41581 6.04498 7.10479L8.15002 10.7501Z" fill="black"/>
</svg>
