<svg width="24" height="24" viewBox="0 0 24 24" fill="none" xmlns="http://www.w3.org/2000/svg">
<path fill-rule="evenodd" clip-rule="evenodd" d="M2.2085 4.5C2.2085 4.15482 2.48832 3.875 2.8335 3.875H21.1668C21.512 3.875 21.7918 4.15482 21.7918 4.5V8.66667C21.7918 9.01184 21.512 9.29167 21.1668 9.29167H20.125V19.4998C20.125 19.845 19.8452 20.1248 19.5 20.1248H4.5C4.15482 20.1248 3.875 19.845 3.875 19.4998V9.29167H2.8335C2.48832 9.29167 2.2085 9.01184 2.2085 8.66667V4.5ZM19.5 8.0415L19.5144 8.04167H20.5418V5.125H3.4585V8.04167H4.4856L4.5 8.0415L4.5144 8.04167H19.4856L19.5 8.0415ZM18.875 9.29167H5.125V18.8748H18.875V9.29167ZM10.3335 11.375C9.98832 11.375 9.7085 11.6548 9.7085 12C9.7085 12.3452 9.98832 12.625 10.3335 12.625H13.6668C14.012 12.625 14.2918 12.3452 14.2918 12C14.2918 11.6548 14.012 11.375 13.6668 11.375H10.3335Z" fill="black"/>
</svg>
