<svg viewBox="0 0 24 24" xmlns="http://www.w3.org/2000/svg">
<path fill="currentColor" stroke="currentColor" stroke-linecap="round" stroke-linejoin="round" d="M11.9998 4.2915C7.74264 4.2915 4.2915 7.74264 4.2915 11.9998C4.2915 16.257 7.74264 19.7082 11.9998 19.7082C16.257 19.7082 19.7082 16.257 19.7082 11.9998C19.7082 7.74264 16.257 4.2915 11.9998 4.2915ZM3.0415 11.9998C3.0415 7.05229 7.05229 3.0415 11.9998 3.0415C16.9474 3.0415 20.9582 7.05229 20.9582 11.9998C20.9582 16.9474 16.9474 20.9582 11.9998 20.9582C7.05229 20.9582 3.0415 16.9474 3.0415 11.9998ZM8.22456 11.5581C8.46864 11.314 8.86437 11.314 9.10845 11.5581L11.375 13.8246V8.6665C11.375 8.32133 11.6548 8.0415 12 8.0415C12.3452 8.0415 12.625 8.32133 12.625 8.6665V13.8243L14.8912 11.5581C15.1353 11.314 15.531 11.314 15.7751 11.5581C16.0192 11.8021 16.0192 12.1979 15.7751 12.4419L12.4418 15.7753C12.1977 16.0194 11.802 16.0194 11.5579 15.7753L8.22456 12.4419C7.98048 12.1979 7.98048 11.8021 8.22456 11.5581Z" fill="black"/>
</svg>
