<svg viewBox="0 0 24 24" xmlns="http://www.w3.org/2000/svg">
<path fill="currentColor" stroke="currentColor" stroke-linecap="round" stroke-linejoin="round" d="M12.625 6.1665C12.625 5.82133 12.3452 5.5415 12 5.5415C11.6548 5.5415 11.375 5.82133 11.375 6.1665V16.3246L6.60845 11.5581C6.36437 11.314 5.96864 11.314 5.72456 11.5581C5.48048 11.8021 5.48048 12.1979 5.72456 12.4419L11.5579 18.2753C11.8015 18.5189 12.1962 18.5194 12.4403 18.2767C12.4408 18.2762 12.4413 18.2758 12.4418 18.2753M12.4425 18.2745L18.2751 12.4419C18.5192 12.1979 18.5192 11.8021 18.2751 11.5581C18.031 11.314 17.6353 11.314 17.3912 11.5581L12.625 16.3243V6.1665" fill="black"/>
</svg>
