<svg width="24" height="24" viewBox="0 0 24 24" fill="none" xmlns="http://www.w3.org/2000/svg">
<path fill-rule="evenodd" clip-rule="evenodd" d="M11.9998 4.2915C7.74264 4.2915 4.2915 7.74264 4.2915 11.9998C4.2915 16.257 7.74264 19.7082 11.9998 19.7082C16.257 19.7082 19.7082 16.257 19.7082 11.9998C19.7082 7.74264 16.257 4.2915 11.9998 4.2915ZM3.0415 11.9998C3.0415 7.05229 7.05229 3.0415 11.9998 3.0415C16.9474 3.0415 20.9582 7.05229 20.9582 11.9998C20.9582 16.9474 16.9474 20.9582 11.9998 20.9582C7.05229 20.9582 3.0415 16.9474 3.0415 11.9998ZM12.4418 8.22456C12.6859 8.46864 12.6859 8.86437 12.4418 9.10845L10.1752 11.375H15.3332C15.6783 11.375 15.9582 11.6548 15.9582 12C15.9582 12.3452 15.6783 12.625 15.3332 12.625H10.1756L12.4418 14.8912C12.6859 15.1353 12.6859 15.531 12.4418 15.7751C12.1977 16.0192 11.802 16.0192 11.5579 15.7751L8.23314 12.4504C8.11501 12.3367 8.0415 12.1769 8.0415 12C8.0415 12 8.0415 11.9999 8.0415 11.9999C8.0415 11.9912 8.04168 11.9825 8.04204 11.9738C8.04414 11.9231 8.05238 11.8726 8.06676 11.8235C8.09525 11.7263 8.14785 11.6346 8.22456 11.5579L11.5579 8.22456C11.802 7.98048 12.1977 7.98048 12.4418 8.22456Z" fill="black"/>
</svg>
