<svg width="24" height="24" viewBox="0 0 24 24" fill="none" xmlns="http://www.w3.org/2000/svg">
<path fill-rule="evenodd" clip-rule="evenodd" d="M11.9998 4.2915C7.74264 4.2915 4.2915 7.74264 4.2915 11.9998C4.2915 16.257 7.74264 19.7082 11.9998 19.7082C16.257 19.7082 19.7082 16.257 19.7082 11.9998C19.7082 7.74264 16.257 4.2915 11.9998 4.2915ZM3.0415 11.9998C3.0415 7.05229 7.05229 3.0415 11.9998 3.0415C16.9474 3.0415 20.9582 7.05229 20.9582 11.9998C20.9582 16.9474 16.9474 20.9582 11.9998 20.9582C7.05229 20.9582 3.0415 16.9474 3.0415 11.9998ZM11.5581 8.22456C11.8021 7.98048 12.1979 7.98048 12.4419 8.22456L15.7753 11.5579C16.0194 11.802 16.0194 12.1977 15.7753 12.4418L12.4419 15.7751C12.1979 16.0192 11.8021 16.0192 11.5581 15.7751C11.314 15.531 11.314 15.1353 11.5581 14.8912L13.8243 12.625H8.6665C8.32133 12.625 8.0415 12.3452 8.0415 12C8.0415 11.6548 8.32133 11.375 8.6665 11.375H13.8246L11.5581 9.10845C11.314 8.86437 11.314 8.46864 11.5581 8.22456Z" fill="black"/>
</svg>
