<svg width="24" height="24" viewBox="0 0 24 24" fill="none" xmlns="http://www.w3.org/2000/svg">
<path fill-rule="evenodd" clip-rule="evenodd" d="M8.27544 7.39155C8.03136 7.14748 7.63563 7.14748 7.39155 7.39155C7.14748 7.63563 7.14748 8.03136 7.39155 8.27544L14.6579 15.5418H7.8335C7.48832 15.5418 7.2085 15.8217 7.2085 16.1668C7.2085 16.512 7.48832 16.7918 7.8335 16.7918H16.1668C16.2516 16.7918 16.3324 16.775 16.4061 16.7444C16.4798 16.7139 16.5488 16.6687 16.6088 16.6088C16.6687 16.5488 16.7139 16.4798 16.7444 16.4061C16.775 16.3324 16.7918 16.2516 16.7918 16.1668V7.8335C16.7918 7.48832 16.512 7.2085 16.1668 7.2085C15.8217 7.2085 15.5418 7.48832 15.5418 7.8335V14.6579L8.27544 7.39155Z" fill="black"/>
</svg>
