<svg width="24" height="24" viewBox="0 0 24 24" fill="none" xmlns="http://www.w3.org/2000/svg">
<path d="M12.0001 15.3333C13.841 15.3333 15.3334 13.8409 15.3334 12C15.3334 10.159 13.841 8.66663 12.0001 8.66663C10.1591 8.66663 8.66675 10.159 8.66675 12C8.66675 13.8409 10.1591 15.3333 12.0001 15.3333Z" stroke="black" stroke-width="1.25" stroke-linecap="round" stroke-linejoin="round"/>
<path d="M15.3334 8.66672V12.8334C15.3334 13.4964 15.5968 14.1323 16.0657 14.6012C16.5345 15.07 17.1704 15.3334 17.8334 15.3334C18.4965 15.3334 19.1324 15.07 19.6012 14.6012C20.07 14.1323 20.3334 13.4964 20.3334 12.8334V12.0001C20.3333 10.1192 19.6969 8.29378 18.5278 6.8205C17.3587 5.34721 15.7256 4.31274 13.894 3.8853C12.0624 3.45786 10.14 3.66259 8.43955 4.46619C6.73906 5.2698 5.36042 6.62502 4.5278 8.31149C3.69519 9.99796 3.45756 11.9165 3.85356 13.7551C4.24956 15.5938 5.2559 17.2444 6.70895 18.4386C8.16199 19.6328 9.97628 20.3003 11.8568 20.3327C13.7373 20.365 15.5735 19.7603 17.0668 18.6167" stroke="black" stroke-width="1.25" stroke-linecap="round" stroke-linejoin="round"/>
</svg>
