<svg viewBox="0 0 24 24" xmlns="http://www.w3.org/2000/svg">
<path fill="currentColor" stroke="currentColor" stroke-linecap="round" stroke-linejoin="round" d="M17 8.66663C17 7.34054 16.4732 6.06877 15.5355 5.13109C14.5979 4.19341 13.3261 3.66663 12 3.66663C10.6739 3.66663 9.40215 4.19341 8.46447 5.13109C7.52678 6.06877 7 7.34054 7 8.66663C7 14.5 4.5 16.1666 4.5 16.1666H19.5C19.5 16.1666 17 14.5 17 8.66663Z"/>
<path fill="currentColor" stroke="currentColor" stroke-linecap="round" stroke-linejoin="round" d="M13.4417 19.5C13.2952 19.7526 13.0849 19.9622 12.8319 20.1079C12.5789 20.2537 12.292 20.3304 12 20.3304C11.708 20.3304 11.4212 20.2537 11.1682 20.1079C10.9151 19.9622 10.7049 19.7526 10.5583 19.5"/>
</svg>
