<svg viewBox="0 0 24 24" xmlns="http://www.w3.org/2000/svg">
<path fill="currentColor" stroke="currentColor" stroke-linecap="round" stroke-linejoin="round" d="M3.66675 4.5H8.66675C9.5508 4.5 10.3986 4.85119 11.0238 5.47631C11.6489 6.10143 12.0001 6.94928 12.0001 7.83333V19.5C12.0001 18.837 11.7367 18.2011 11.2678 17.7322C10.799 17.2634 10.1631 17 9.50008 17H3.66675V4.5Z"/>
<path fill="currentColor" stroke="currentColor" stroke-linecap="round" stroke-linejoin="round" d="M20.3333 4.5H15.3333C14.4493 4.5 13.6014 4.85119 12.9763 5.47631C12.3512 6.10143 12 6.94928 12 7.83333V19.5C12 18.837 12.2634 18.2011 12.7322 17.7322C13.2011 17.2634 13.837 17 14.5 17H20.3333V4.5Z"/>
</svg>
