<svg viewBox="0 0 24 24" xmlns="http://www.w3.org/2000/svg">
<path fill="currentColor" stroke="currentColor" stroke-linecap="round" stroke-linejoin="round" d="M21.1666 17.8333C21.1666 18.2754 20.991 18.6993 20.6784 19.0118C20.3659 19.3244 19.9419 19.5 19.4999 19.5H4.49992C4.05789 19.5 3.63397 19.3244 3.32141 19.0118C3.00885 18.6993 2.83325 18.2754 2.83325 17.8333V8.66667C2.83325 8.22464 3.00885 7.80072 3.32141 7.48816C3.63397 7.17559 4.05789 7 4.49992 7H7.83325L9.49992 4.5H14.4999L16.1666 7H19.4999C19.9419 7 20.3659 7.17559 20.6784 7.48816C20.991 7.80072 21.1666 8.22464 21.1666 8.66667V17.8333Z"/>
<path fill="currentColor" stroke="currentColor" stroke-linecap="round" stroke-linejoin="round" d="M12.0001 16.1667C13.841 16.1667 15.3334 14.6743 15.3334 12.8333C15.3334 10.9924 13.841 9.5 12.0001 9.5C10.1591 9.5 8.66675 10.9924 8.66675 12.8333C8.66675 14.6743 10.1591 16.1667 12.0001 16.1667Z"/>
</svg>
