<svg viewBox="0 0 24 24" xmlns="http://www.w3.org/2000/svg">
<path fill="currentColor" stroke="currentColor" stroke-linecap="round" stroke-linejoin="round" d="M2.83325 2.83337L21.1666 21.1667"/>
<path fill="currentColor" stroke="currentColor" stroke-linecap="round" stroke-linejoin="round" d="M19.4999 19.5H4.49992C4.05789 19.5 3.63397 19.3244 3.32141 19.0118C3.00885 18.6993 2.83325 18.2754 2.83325 17.8333V8.66667C2.83325 8.22464 3.00885 7.80072 3.32141 7.48816C3.63397 7.17559 4.05789 7 4.49992 7H6.99992M9.49992 4.5H14.4999L16.1666 7H19.4999C19.9419 7 20.3659 7.17559 20.6784 7.48816C20.991 7.80072 21.1666 8.22464 21.1666 8.66667V16.45M14.7333 14.7333C14.4567 15.1375 14.0944 15.4758 13.6722 15.7241C13.2501 15.9725 12.7784 16.1247 12.2907 16.17C11.803 16.2153 11.3114 16.1526 10.8507 15.9863C10.39 15.8201 9.97159 15.5543 9.62527 15.208C9.27894 14.8617 9.01319 14.4433 8.84692 13.9826C8.68065 13.5219 8.61794 13.0302 8.66326 12.5425C8.70857 12.0549 8.8608 11.5832 9.10911 11.161C9.35742 10.7388 9.69571 10.3766 10.0999 10.1"/>
</svg>
