<svg width="24" height="24" viewBox="0 0 24 24" fill="none" xmlns="http://www.w3.org/2000/svg">
<path d="M3.66675 15.4167C4.46749 15.58 5.20253 15.9752 5.7804 16.5531C6.35827 17.1309 6.75344 17.866 6.91675 18.6667M3.66675 12.0417C5.35907 12.2299 6.93698 12.9884 8.14101 14.1924C9.34504 15.3965 10.1035 16.9744 10.2917 18.6667M3.66675 8.66671V7.00004C3.66675 6.55801 3.84234 6.13409 4.1549 5.82153C4.46746 5.50897 4.89139 5.33337 5.33341 5.33337H18.6667C19.1088 5.33337 19.5327 5.50897 19.8453 5.82153C20.1578 6.13409 20.3334 6.55801 20.3334 7.00004V17C20.3334 17.4421 20.1578 17.866 19.8453 18.1786C19.5327 18.4911 19.1088 18.6667 18.6667 18.6667H13.6667" stroke="black" stroke-width="1.25" stroke-linecap="round" stroke-linejoin="round"/>
<path d="M3.66675 18.6666H3.67508" stroke="black" stroke-width="1.25" stroke-linecap="round" stroke-linejoin="round"/>
</svg>
