<svg viewBox="0 0 24 24" xmlns="http://www.w3.org/2000/svg">
<path fill="currentColor" stroke="currentColor" stroke-linecap="round" stroke-linejoin="round" d="M12.0001 20.3333C16.6025 20.3333 20.3334 16.6023 20.3334 12C20.3334 7.39759 16.6025 3.66663 12.0001 3.66663C7.39771 3.66663 3.66675 7.39759 3.66675 12C3.66675 16.6023 7.39771 20.3333 12.0001 20.3333Z"/>
<path fill="currentColor" stroke="currentColor" stroke-linecap="round" stroke-linejoin="round" d="M12.0001 15.3333C13.841 15.3333 15.3334 13.8409 15.3334 12C15.3334 10.159 13.841 8.66663 12.0001 8.66663C10.1591 8.66663 8.66675 10.159 8.66675 12C8.66675 13.8409 10.1591 15.3333 12.0001 15.3333Z"/>
<path fill="currentColor" stroke="currentColor" stroke-linecap="round" stroke-linejoin="round" d="M19.6417 8.66663H12"/>
<path fill="currentColor" stroke="currentColor" stroke-linecap="round" stroke-linejoin="round" d="M5.29175 7.05005L9.11675 13.6667"/>
<path fill="currentColor" stroke="currentColor" stroke-linecap="round" stroke-linejoin="round" d="M11.0667 20.2833L14.8833 13.6666"/>
</svg>
