<svg width="24" height="24" viewBox="0 0 24 24" fill="none" xmlns="http://www.w3.org/2000/svg">
<path d="M15.3333 5.33337H16.9999C17.4419 5.33337 17.8659 5.50897 18.1784 5.82153C18.491 6.13409 18.6666 6.55801 18.6666 7.00004V18.6667C18.6666 19.1087 18.491 19.5327 18.1784 19.8452C17.8659 20.1578 17.4419 20.3334 16.9999 20.3334H6.99992C6.55789 20.3334 6.13397 20.1578 5.82141 19.8452C5.50885 19.5327 5.33325 19.1087 5.33325 18.6667V7.00004C5.33325 6.55801 5.50885 6.13409 5.82141 5.82153C6.13397 5.50897 6.55789 5.33337 6.99992 5.33337H8.66659" stroke="black" stroke-width="1.25" stroke-linecap="round" stroke-linejoin="round"/>
<path d="M14.5001 3.66663H9.50008C9.03984 3.66663 8.66675 4.03972 8.66675 4.49996V6.16663C8.66675 6.62686 9.03984 6.99996 9.50008 6.99996H14.5001C14.9603 6.99996 15.3334 6.62686 15.3334 6.16663V4.49996C15.3334 4.03972 14.9603 3.66663 14.5001 3.66663Z" stroke="black" stroke-width="1.25" stroke-linecap="round" stroke-linejoin="round"/>
</svg>
