<svg width="24" height="24" viewBox="0 0 24 24" fill="none" xmlns="http://www.w3.org/2000/svg">
<path d="M18.6666 16.65C19.5427 16.2663 20.26 15.5929 20.6983 14.7429C21.1367 13.8929 21.2692 12.918 21.0738 11.9818C20.8783 11.0456 20.3668 10.2051 19.625 9.60149C18.8832 8.99785 17.9563 8.66776 16.9999 8.66663H15.9499C15.6858 7.64373 15.1823 6.69825 14.481 5.90813C13.7798 5.11801 12.9007 4.50586 11.9164 4.12215C10.9321 3.73844 9.8707 3.59415 8.81968 3.70117C7.76866 3.80819 6.75812 4.16346 5.87136 4.7377C4.9846 5.31194 4.247 6.0887 3.71937 7.00396C3.19173 7.91922 2.88917 8.94678 2.83662 10.0019C2.78407 11.0571 2.98304 12.1096 3.41712 13.0728C3.8512 14.0359 4.50796 14.8821 5.33328 15.5416" stroke="black" stroke-width="1.25" stroke-linecap="round" stroke-linejoin="round"/>
<path d="M8.66675 15.3334H8.67508" stroke="black" stroke-width="1.25" stroke-linecap="round" stroke-linejoin="round"/>
<path d="M8.66675 18.6666H8.67508" stroke="black" stroke-width="1.25" stroke-linecap="round" stroke-linejoin="round"/>
<path d="M12 17H12.0083" stroke="black" stroke-width="1.25" stroke-linecap="round" stroke-linejoin="round"/>
<path d="M12 20.3334H12.0083" stroke="black" stroke-width="1.25" stroke-linecap="round" stroke-linejoin="round"/>
<path d="M15.3333 15.3334H15.3416" stroke="black" stroke-width="1.25" stroke-linecap="round" stroke-linejoin="round"/>
<path d="M15.3333 18.6666H15.3416" stroke="black" stroke-width="1.25" stroke-linecap="round" stroke-linejoin="round"/>
</svg>
