<svg width="24" height="24" viewBox="0 0 24 24" fill="none" xmlns="http://www.w3.org/2000/svg">
<path d="M8.66675 17.8334V19.5" stroke="black" stroke-width="1.25" stroke-linecap="round" stroke-linejoin="round"/>
<path d="M8.66675 12.8334V14.5" stroke="black" stroke-width="1.25" stroke-linecap="round" stroke-linejoin="round"/>
<path d="M15.3333 17.8334V19.5" stroke="black" stroke-width="1.25" stroke-linecap="round" stroke-linejoin="round"/>
<path d="M15.3333 12.8334V14.5" stroke="black" stroke-width="1.25" stroke-linecap="round" stroke-linejoin="round"/>
<path d="M12 19.5V21.1667" stroke="black" stroke-width="1.25" stroke-linecap="round" stroke-linejoin="round"/>
<path d="M12 14.5V16.1667" stroke="black" stroke-width="1.25" stroke-linecap="round" stroke-linejoin="round"/>
<path d="M18.6666 15.8167C19.5427 15.433 20.26 14.7597 20.6983 13.9097C21.1367 13.0596 21.2692 12.0847 21.0738 11.1485C20.8783 10.2123 20.3668 9.37189 19.625 8.76824C18.8832 8.16459 17.9563 7.8345 16.9999 7.83338H15.9499C15.6858 6.81048 15.1823 5.865 14.481 5.07488C13.7798 4.28476 12.9007 3.67261 11.9164 3.2889C10.9321 2.90518 9.8707 2.76089 8.81968 2.86792C7.76866 2.97494 6.75812 3.33021 5.87136 3.90445C4.9846 4.47869 4.247 5.25545 3.71937 6.17071C3.19173 7.08597 2.88917 8.11352 2.83662 9.16867C2.78407 10.2238 2.98304 11.2764 3.41712 12.2395C3.8512 13.2027 4.50796 14.0489 5.33328 14.7084" stroke="black" stroke-width="1.25" stroke-linecap="round" stroke-linejoin="round"/>
</svg>
