<svg viewBox="0 0 24 24" xmlns="http://www.w3.org/2000/svg">
<path fill="currentColor" stroke="currentColor" stroke-linecap="round" stroke-linejoin="round" d="M17 10.3334H15.95C15.6382 9.12587 14.994 8.03003 14.0905 7.17037C13.1871 6.31071 12.0606 5.7217 10.8391 5.47027C9.61762 5.21884 8.35009 5.31507 7.18056 5.74803C6.01102 6.18099 4.98638 6.93332 4.22305 7.91953C3.45973 8.90573 2.98834 10.0863 2.86243 11.327C2.73653 12.5677 2.96117 13.8189 3.51082 14.9383C4.06048 16.0578 4.91311 17.0006 5.97183 17.6597C7.03055 18.3187 8.25291 18.6676 9.50001 18.6667H17C18.1051 18.6667 19.1649 18.2277 19.9463 17.4463C20.7277 16.6649 21.1667 15.6051 21.1667 14.5C21.1667 13.395 20.7277 12.3352 19.9463 11.5538C19.1649 10.7724 18.1051 10.3334 17 10.3334Z"/>
</svg>
