<svg width="24" height="24" viewBox="0 0 24 24" fill="none" xmlns="http://www.w3.org/2000/svg">
<path d="M20.8416 16.125C21.1101 15.4911 21.2173 14.8006 21.1537 14.1151C21.0901 13.4296 20.8576 12.7706 20.4771 12.1969C20.0966 11.6232 19.5798 11.1527 18.973 10.8275C18.3662 10.5023 17.6883 10.3326 16.9999 10.3334H15.9499C15.6097 8.99378 14.8616 7.79303 13.8091 6.89725C12.7566 6.00148 11.4517 5.45498 10.0749 5.33337M6.16658 6.16671C4.86498 6.88641 3.84142 8.02069 3.25874 9.38913C2.67605 10.7576 2.56771 12.2816 2.95093 13.7187C3.33416 15.1558 4.18695 16.4234 5.37365 17.32C6.56034 18.2166 8.01278 18.6907 9.49991 18.6667H16.9999C17.4831 18.6661 17.9624 18.5815 18.4166 18.4167" stroke="black" stroke-width="1.25" stroke-linecap="round" stroke-linejoin="round"/>
<path d="M2.83325 2.83337L21.1666 21.1667" stroke="black" stroke-width="1.25" stroke-linecap="round" stroke-linejoin="round"/>
</svg>
