<svg width="24" height="24" viewBox="0 0 24 24" fill="none" xmlns="http://www.w3.org/2000/svg">
<path d="M17.8334 16.0833C18.8461 15.8777 19.7462 15.3031 20.359 14.4712C20.9719 13.6393 21.2537 12.6093 21.1499 11.5812C21.046 10.5532 20.5639 9.60035 19.7971 8.90778C19.0302 8.2152 18.0334 7.83226 17.0001 7.8333H15.9501C15.674 6.7644 15.1368 5.78079 14.3867 4.97079C13.6366 4.16078 12.697 3.54974 11.6525 3.19252C10.6079 2.83529 9.49092 2.74307 8.40189 2.92414C7.31285 3.1052 6.28583 3.55388 5.41303 4.22989C4.54023 4.9059 3.84896 5.78808 3.4013 6.79722C2.95364 7.80637 2.7636 8.91089 2.84823 10.0116C2.93287 11.1124 3.28954 12.1748 3.88621 13.1037C4.48288 14.0325 5.30088 14.7987 6.26677 15.3333" stroke="black" stroke-width="1.25" stroke-linecap="round" stroke-linejoin="round"/>
<path d="M12.8333 11.1666L9.5 16.1666H14.5L11.1667 21.1666" stroke="black" stroke-width="1.25" stroke-linecap="round" stroke-linejoin="round"/>
</svg>
