<svg width="24" height="24" viewBox="0 0 24 24" fill="none" xmlns="http://www.w3.org/2000/svg">
<path d="M17 8.66663H17.8333C18.7174 8.66663 19.5652 9.01782 20.1904 9.64294C20.8155 10.2681 21.1667 11.1159 21.1667 12C21.1667 12.884 20.8155 13.7319 20.1904 14.357C19.5652 14.9821 18.7174 15.3333 17.8333 15.3333H17" stroke="black" stroke-width="1.25" stroke-linecap="round" stroke-linejoin="round"/>
<path d="M3.66675 8.66663H17.0001V16.1666C17.0001 17.0507 16.6489 17.8985 16.0238 18.5236C15.3986 19.1488 14.5508 19.5 13.6667 19.5H7.00008C6.11603 19.5 5.26818 19.1488 4.64306 18.5236C4.01794 17.8985 3.66675 17.0507 3.66675 16.1666V8.66663Z" stroke="black" stroke-width="1.25" stroke-linecap="round" stroke-linejoin="round"/>
<path d="M7 2.83337V5.33337" stroke="black" stroke-width="1.25" stroke-linecap="round" stroke-linejoin="round"/>
<path d="M10.3333 2.83337V5.33337" stroke="black" stroke-width="1.25" stroke-linecap="round" stroke-linejoin="round"/>
<path d="M13.6667 2.83337V5.33337" stroke="black" stroke-width="1.25" stroke-linecap="round" stroke-linejoin="round"/>
</svg>
