<svg viewBox="0 0 24 24" xmlns="http://www.w3.org/2000/svg">
<path fill="currentColor" stroke="currentColor" stroke-linecap="round" stroke-linejoin="round" d="M12 4.5H17.8333C18.2754 4.5 18.6993 4.67559 19.0118 4.98816C19.3244 5.30072 19.5 5.72464 19.5 6.16667V17.8333C19.5 18.2754 19.3244 18.6993 19.0118 19.0118C18.6993 19.3244 18.2754 19.5 17.8333 19.5H12M12 4.5H6.16667C5.72464 4.5 5.30072 4.67559 4.98816 4.98816C4.67559 5.30072 4.5 5.72464 4.5 6.16667V17.8333C4.5 18.2754 4.67559 18.6993 4.98816 19.0118C5.30072 19.3244 5.72464 19.5 6.16667 19.5H12M12 4.5V19.5"/>
</svg>
