<svg width="24" height="24" viewBox="0 0 24 24" fill="none" xmlns="http://www.w3.org/2000/svg">
<path d="M17 4.5C16.337 4.5 15.7011 4.76339 15.2322 5.23223C14.7634 5.70107 14.5 6.33696 14.5 7V17C14.5 17.663 14.7634 18.2989 15.2322 18.7678C15.7011 19.2366 16.337 19.5 17 19.5C17.663 19.5 18.2989 19.2366 18.7678 18.7678C19.2366 18.2989 19.5 17.663 19.5 17C19.5 16.337 19.2366 15.7011 18.7678 15.2322C18.2989 14.7634 17.663 14.5 17 14.5H7C6.33696 14.5 5.70107 14.7634 5.23223 15.2322C4.76339 15.7011 4.5 16.337 4.5 17C4.5 17.663 4.76339 18.2989 5.23223 18.7678C5.70107 19.2366 6.33696 19.5 7 19.5C7.66304 19.5 8.29893 19.2366 8.76777 18.7678C9.23661 18.2989 9.5 17.663 9.5 17V7C9.5 6.33696 9.23661 5.70107 8.76777 5.23223C8.29893 4.76339 7.66304 4.5 7 4.5C6.33696 4.5 5.70107 4.76339 5.23223 5.23223C4.76339 5.70107 4.5 6.33696 4.5 7C4.5 7.66304 4.76339 8.29893 5.23223 8.76777C5.70107 9.23661 6.33696 9.5 7 9.5H17C17.663 9.5 18.2989 9.23661 18.7678 8.76777C19.2366 8.29893 19.5 7.66304 19.5 7C19.5 6.33696 19.2366 5.70107 18.7678 5.23223C18.2989 4.76339 17.663 4.5 17 4.5Z" stroke="black" stroke-width="1.25" stroke-linecap="round" stroke-linejoin="round"/>
</svg>
