<svg width="24" height="24" viewBox="0 0 24 24" fill="none" xmlns="http://www.w3.org/2000/svg">
<path d="M18.6667 9.5H11.1667C10.2462 9.5 9.5 10.2462 9.5 11.1667V18.6667C9.5 19.5871 10.2462 20.3333 11.1667 20.3333H18.6667C19.5871 20.3333 20.3333 19.5871 20.3333 18.6667V11.1667C20.3333 10.2462 19.5871 9.5 18.6667 9.5Z" stroke="black" stroke-width="1.25" stroke-linecap="round" stroke-linejoin="round"/>
<path d="M6.16675 14.5H5.33341C4.89139 14.5 4.46746 14.3244 4.1549 14.0118C3.84234 13.6992 3.66675 13.2753 3.66675 12.8333V5.33329C3.66675 4.89127 3.84234 4.46734 4.1549 4.15478C4.46746 3.84222 4.89139 3.66663 5.33341 3.66663H12.8334C13.2754 3.66663 13.6994 3.84222 14.0119 4.15478C14.3245 4.46734 14.5001 4.89127 14.5001 5.33329V6.16663" stroke="black" stroke-width="1.25" stroke-linecap="round" stroke-linejoin="round"/>
</svg>
