<svg width="24" height="24" viewBox="0 0 24 24" fill="none" xmlns="http://www.w3.org/2000/svg">
<path d="M16.9999 5.33337H6.99992C6.07944 5.33337 5.33325 6.07957 5.33325 7.00004V17C5.33325 17.9205 6.07944 18.6667 6.99992 18.6667H16.9999C17.9204 18.6667 18.6666 17.9205 18.6666 17V7.00004C18.6666 6.07957 17.9204 5.33337 16.9999 5.33337Z" stroke="black" stroke-width="1.25" stroke-linecap="round" stroke-linejoin="round"/>
<path d="M14.5 9.5H9.5V14.5H14.5V9.5Z" stroke="black" stroke-width="1.25" stroke-linecap="round" stroke-linejoin="round"/>
<path d="M9.5 2.83337V5.33337" stroke="black" stroke-width="1.25" stroke-linecap="round" stroke-linejoin="round"/>
<path d="M14.5 2.83337V5.33337" stroke="black" stroke-width="1.25" stroke-linecap="round" stroke-linejoin="round"/>
<path d="M9.5 18.6666V21.1666" stroke="black" stroke-width="1.25" stroke-linecap="round" stroke-linejoin="round"/>
<path d="M14.5 18.6666V21.1666" stroke="black" stroke-width="1.25" stroke-linecap="round" stroke-linejoin="round"/>
<path d="M18.6667 9.5H21.1667" stroke="black" stroke-width="1.25" stroke-linecap="round" stroke-linejoin="round"/>
<path d="M18.6667 13.6666H21.1667" stroke="black" stroke-width="1.25" stroke-linecap="round" stroke-linejoin="round"/>
<path d="M2.83325 9.5H5.33325" stroke="black" stroke-width="1.25" stroke-linecap="round" stroke-linejoin="round"/>
<path d="M2.83325 13.6666H5.33325" stroke="black" stroke-width="1.25" stroke-linecap="round" stroke-linejoin="round"/>
</svg>
