<svg width="24" height="24" viewBox="0 0 24 24" fill="none" xmlns="http://www.w3.org/2000/svg">
<path d="M8.66675 16.1666L12.0001 19.5L15.3334 16.1666" stroke="black" stroke-width="1.25" stroke-linecap="round" stroke-linejoin="round"/>
<path d="M12 12V19.5" stroke="black" stroke-width="1.25" stroke-linecap="round" stroke-linejoin="round"/>
<path d="M19.4001 17.0749C20.1246 16.5655 20.6679 15.8384 20.9511 14.9992C21.2344 14.1601 21.2429 13.2525 20.9754 12.4081C20.7079 11.5638 20.1783 10.8267 19.4635 10.3037C18.7486 9.7808 17.8858 9.49925 17.0001 9.49994H15.9501C15.6994 8.52317 15.2305 7.61598 14.5785 6.84668C13.9265 6.07737 13.1085 5.46599 12.1861 5.05857C11.2636 4.65115 10.2608 4.4583 9.253 4.49454C8.24524 4.53078 7.25883 4.79517 6.36803 5.2678C5.47723 5.74043 4.70525 6.40898 4.11022 7.22314C3.51519 8.03729 3.11261 8.97582 2.93278 9.96807C2.75296 10.9603 2.80057 11.9804 3.07205 12.9516C3.34352 13.9228 3.83178 14.8198 4.50007 15.5749" stroke="black" stroke-width="1.25" stroke-linecap="round" stroke-linejoin="round"/>
</svg>
