<svg viewBox="0 0 24 24" xmlns="http://www.w3.org/2000/svg">
<path fill="currentColor" stroke="currentColor" stroke-linecap="round" stroke-linejoin="round" d="M11.1667 5.33337H5.33341C4.89139 5.33337 4.46746 5.50897 4.1549 5.82153C3.84234 6.13409 3.66675 6.55801 3.66675 7.00004V18.6667C3.66675 19.1087 3.84234 19.5327 4.1549 19.8452C4.46746 20.1578 4.89139 20.3334 5.33341 20.3334H17.0001C17.4421 20.3334 17.866 20.1578 18.1786 19.8452C18.4912 19.5327 18.6667 19.1087 18.6667 18.6667V12.8334"/>
<path fill="currentColor" stroke="currentColor" stroke-linecap="round" stroke-linejoin="round" d="M17.4167 4.08332C17.7483 3.7518 18.1979 3.56555 18.6667 3.56555C19.1356 3.56555 19.5852 3.7518 19.9167 4.08332C20.2483 4.41484 20.4345 4.86448 20.4345 5.33332C20.4345 5.80216 20.2483 6.2518 19.9167 6.58332L12.0001 14.5L8.66675 15.3333L9.50008 12L17.4167 4.08332Z"/>
</svg>
