<svg viewBox="0 0 24 24" xmlns="http://www.w3.org/2000/svg">
<path fill="currentColor" stroke="currentColor" stroke-linecap="round" stroke-linejoin="round" d="M16.9499 16.9499C15.5254 18.0358 13.7908 18.6373 11.9999 18.6666C6.16658 18.6666 2.83325 11.9999 2.83325 11.9999C3.86983 10.0682 5.30753 8.38045 7.04992 7.04994M10.2499 5.53327C10.8235 5.39901 11.4108 5.33189 11.9999 5.33327C17.8333 5.33327 21.1666 11.9999 21.1666 11.9999C20.6607 12.9463 20.0575 13.8372 19.3666 14.6583M13.7666 13.7666C13.5377 14.0122 13.2617 14.2092 12.955 14.3459C12.6484 14.4825 12.3173 14.556 11.9817 14.5619C11.646 14.5678 11.3126 14.5061 11.0013 14.3803C10.69 14.2546 10.4072 14.0675 10.1698 13.8301C9.93239 13.5927 9.74525 13.3099 9.61951 12.9986C9.49377 12.6873 9.43202 12.3539 9.43795 12.0182C9.44387 11.6825 9.51734 11.3515 9.65398 11.0448C9.79062 10.7381 9.98763 10.4621 10.2333 10.2333"/>
<path fill="currentColor" stroke="currentColor" stroke-linecap="round" stroke-linejoin="round" d="M2.83325 2.83337L21.1666 21.1667"/>
</svg>
