<svg width="24" height="24" viewBox="0 0 24 24" fill="none" xmlns="http://www.w3.org/2000/svg">
<path d="M6.16675 6.58329C6.16675 5.80974 6.47404 5.06788 7.02102 4.5209C7.568 3.97392 8.30987 3.66663 9.08341 3.66663H12.0001V9.49996H9.08341C8.30987 9.49996 7.568 9.19267 7.02102 8.64569C6.47404 8.09871 6.16675 7.35684 6.16675 6.58329Z" stroke="black" stroke-width="1.25" stroke-linecap="round" stroke-linejoin="round"/>
<path d="M12 3.66663H14.9167C15.2997 3.66663 15.679 3.74207 16.0328 3.88864C16.3867 4.03522 16.7082 4.25006 16.9791 4.5209C17.2499 4.79174 17.4647 5.11327 17.6113 5.46713C17.7579 5.821 17.8333 6.20027 17.8333 6.58329C17.8333 6.96631 17.7579 7.34559 17.6113 7.69945C17.4647 8.05332 17.2499 8.37485 16.9791 8.64569C16.7082 8.91652 16.3867 9.13137 16.0328 9.27794C15.679 9.42452 15.2997 9.49996 14.9167 9.49996H12V3.66663Z" stroke="black" stroke-width="1.25" stroke-linecap="round" stroke-linejoin="round"/>
<path d="M12 12.4167C12 12.0336 12.0754 11.6544 12.222 11.3005C12.3686 10.9466 12.5834 10.6251 12.8543 10.3543C13.1251 10.0834 13.4466 9.86859 13.8005 9.72202C14.1544 9.57544 14.5336 9.5 14.9167 9.5C15.2997 9.5 15.679 9.57544 16.0328 9.72202C16.3867 9.86859 16.7082 10.0834 16.9791 10.3543C17.2499 10.6251 17.4647 10.9466 17.6113 11.3005C17.7579 11.6544 17.8333 12.0336 17.8333 12.4167C17.8333 12.7997 17.7579 13.179 17.6113 13.5328C17.4647 13.8867 17.2499 14.2082 16.9791 14.4791C16.7082 14.7499 16.3867 14.9647 16.0328 15.1113C15.679 15.2579 15.2997 15.3333 14.9167 15.3333C14.5336 15.3333 14.1544 15.2579 13.8005 15.1113C13.4466 14.9647 13.1251 14.7499 12.8543 14.4791C12.5834 14.2082 12.3686 13.8867 12.222 13.5328C12.0754 13.179 12 12.7997 12 12.4167Z" stroke="black" stroke-width="1.25" stroke-linecap="round" stroke-linejoin="round"/>
<path d="M6.16675 18.25C6.16675 17.4765 6.47404 16.7346 7.02102 16.1876C7.568 15.6407 8.30987 15.3334 9.08341 15.3334H12.0001V18.25C12.0001 19.0236 11.6928 19.7655 11.1458 20.3124C10.5988 20.8594 9.85696 21.1667 9.08341 21.1667C8.30987 21.1667 7.568 20.8594 7.02102 20.3124C6.47404 19.7655 6.16675 19.0236 6.16675 18.25Z" stroke="black" stroke-width="1.25" stroke-linecap="round" stroke-linejoin="round"/>
<path d="M6.16675 12.4167C6.16675 11.6431 6.47404 10.9013 7.02102 10.3543C7.568 9.80729 8.30987 9.5 9.08341 9.5H12.0001V15.3333H9.08341C8.30987 15.3333 7.568 15.026 7.02102 14.4791C6.47404 13.9321 6.16675 13.1902 6.16675 12.4167Z" stroke="black" stroke-width="1.25" stroke-linecap="round" stroke-linejoin="round"/>
</svg>
