<svg width="24" height="24" viewBox="0 0 24 24" fill="none" xmlns="http://www.w3.org/2000/svg">
<path d="M13.6666 3.66663H6.99992C6.55789 3.66663 6.13397 3.84222 5.82141 4.15478C5.50885 4.46734 5.33325 4.89127 5.33325 5.33329V18.6666C5.33325 19.1087 5.50885 19.5326 5.82141 19.8451C6.13397 20.1577 6.55789 20.3333 6.99992 20.3333H16.9999C17.4419 20.3333 17.8659 20.1577 18.1784 19.8451C18.491 19.5326 18.6666 19.1087 18.6666 18.6666V8.66663L13.6666 3.66663Z" stroke="black" stroke-width="1.25" stroke-linecap="round" stroke-linejoin="round"/>
<path d="M13.6667 3.66663V8.66663H18.6667" stroke="black" stroke-width="1.25" stroke-linecap="round" stroke-linejoin="round"/>
<path d="M15.3334 12.8334H8.66675" stroke="black" stroke-width="1.25" stroke-linecap="round" stroke-linejoin="round"/>
<path d="M15.3334 16.1666H8.66675" stroke="black" stroke-width="1.25" stroke-linecap="round" stroke-linejoin="round"/>
<path d="M10.3334 9.5H9.50008H8.66675" stroke="black" stroke-width="1.25" stroke-linecap="round" stroke-linejoin="round"/>
</svg>
