<svg width="24" height="24" viewBox="0 0 24 24" fill="none" xmlns="http://www.w3.org/2000/svg">
<path d="M18.6666 12V20.3333H5.33325V12" stroke="black" stroke-width="1.25" stroke-linecap="round" stroke-linejoin="round"/>
<path d="M20.3334 7.83337H3.66675V12H20.3334V7.83337Z" stroke="black" stroke-width="1.25" stroke-linecap="round" stroke-linejoin="round"/>
<path d="M12 20.3334V7.83337" stroke="black" stroke-width="1.25" stroke-linecap="round" stroke-linejoin="round"/>
<path d="M12.0001 7.83329H8.25008C7.69755 7.83329 7.16764 7.6138 6.77694 7.2231C6.38624 6.8324 6.16675 6.30249 6.16675 5.74996C6.16675 5.19742 6.38624 4.66752 6.77694 4.27682C7.16764 3.88612 7.69755 3.66663 8.25008 3.66663C11.1667 3.66663 12.0001 7.83329 12.0001 7.83329Z" stroke="black" stroke-width="1.25" stroke-linecap="round" stroke-linejoin="round"/>
<path d="M12 7.83329H15.75C16.3025 7.83329 16.8324 7.6138 17.2231 7.2231C17.6138 6.8324 17.8333 6.30249 17.8333 5.74996C17.8333 5.19742 17.6138 4.66752 17.2231 4.27682C16.8324 3.88612 16.3025 3.66663 15.75 3.66663C12.8333 3.66663 12 7.83329 12 7.83329Z" stroke="black" stroke-width="1.25" stroke-linecap="round" stroke-linejoin="round"/>
</svg>
