<svg width="24" height="24" viewBox="0 0 24 24" fill="none" xmlns="http://www.w3.org/2000/svg">
<path d="M7 4.5V14.5" stroke="black" stroke-width="1.25" stroke-linecap="round" stroke-linejoin="round"/>
<path d="M17 9.5C18.3807 9.5 19.5 8.38071 19.5 7C19.5 5.61929 18.3807 4.5 17 4.5C15.6193 4.5 14.5 5.61929 14.5 7C14.5 8.38071 15.6193 9.5 17 9.5Z" stroke="black" stroke-width="1.25" stroke-linecap="round" stroke-linejoin="round"/>
<path d="M7 19.5C8.38071 19.5 9.5 18.3807 9.5 17C9.5 15.6193 8.38071 14.5 7 14.5C5.61929 14.5 4.5 15.6193 4.5 17C4.5 18.3807 5.61929 19.5 7 19.5Z" stroke="black" stroke-width="1.25" stroke-linecap="round" stroke-linejoin="round"/>
<path d="M17 9.5C17 11.4891 16.2098 13.3968 14.8033 14.8033C13.3968 16.2098 11.4891 17 9.5 17" stroke="black" stroke-width="1.25" stroke-linecap="round" stroke-linejoin="round"/>
</svg>
