<svg viewBox="0 0 24 24" xmlns="http://www.w3.org/2000/svg">
<path fill="currentColor" stroke="currentColor" stroke-linecap="round" stroke-linejoin="round" d="M9.50008 17.8334C5.33341 19.0834 5.33341 15.75 3.66675 15.3334M15.3334 20.3334V17.1084C15.3647 16.711 15.311 16.3115 15.1759 15.9365C15.0409 15.5615 14.8275 15.2195 14.5501 14.9334C17.1667 14.6417 19.9167 13.65 19.9167 9.10003C19.9165 7.93655 19.469 6.8177 18.6667 5.97503C19.0466 4.95712 19.0198 3.83199 18.5917 2.83336C18.5917 2.83336 17.6084 2.5417 15.3334 4.0667C13.4234 3.54905 11.4101 3.54905 9.50008 4.0667C7.22508 2.5417 6.24175 2.83336 6.24175 2.83336C5.81373 3.83199 5.78687 4.95712 6.16675 5.97503C5.35852 6.82395 4.91052 7.95292 4.91675 9.12503C4.91675 13.6417 7.66675 14.6334 10.2834 14.9584C10.0092 15.2417 9.7978 15.5795 9.66284 15.95C9.52788 16.3204 9.47242 16.7151 9.50008 17.1084V20.3334"/>
</svg>
