<svg width="24" height="24" viewBox="0 0 24 24" fill="none" xmlns="http://www.w3.org/2000/svg">
<path d="M20.8751 13.9916L12.0001 20.4416L3.12512 13.9916C3.00614 13.9041 2.91789 13.7812 2.87298 13.6405C2.82808 13.4998 2.82883 13.3485 2.87512 13.2083L3.89179 10.0583L5.92512 3.79997C5.94484 3.74897 5.97624 3.70331 6.01679 3.66663C6.08282 3.60632 6.16902 3.57288 6.25845 3.57288C6.34789 3.57288 6.43409 3.60632 6.50012 3.66663C6.54294 3.70802 6.57449 3.75965 6.59179 3.81663L8.62512 10.0583H15.3751L17.4085 3.79997C17.4282 3.74897 17.4596 3.70331 17.5001 3.66663C17.5662 3.60632 17.6524 3.57288 17.7418 3.57288C17.8312 3.57288 17.9174 3.60632 17.9835 3.66663C18.0263 3.70802 18.0578 3.75965 18.0751 3.81663L20.1085 10.075L21.1668 13.2083C21.2089 13.3529 21.2033 13.5072 21.1507 13.6483C21.0982 13.7894 21.0015 13.9098 20.8751 13.9916Z" stroke="black" stroke-width="1.25" stroke-linecap="round" stroke-linejoin="round"/>
</svg>
