<svg width="24" height="24" viewBox="0 0 24 24" fill="none" xmlns="http://www.w3.org/2000/svg">
<path d="M20.3334 12H3.66675" stroke="black" stroke-width="1.25" stroke-linecap="round" stroke-linejoin="round"/>
<path d="M6.54175 6.25837L3.66675 12V17C3.66675 17.4421 3.84234 17.866 4.1549 18.1786C4.46746 18.4911 4.89139 18.6667 5.33341 18.6667H18.6667C19.1088 18.6667 19.5327 18.4911 19.8453 18.1786C20.1578 17.866 20.3334 17.4421 20.3334 17V12L17.4584 6.25837C17.3204 5.9807 17.1077 5.74702 16.8442 5.58361C16.5807 5.4202 16.2768 5.33354 15.9667 5.33337H8.03341C7.72334 5.33354 7.41947 5.4202 7.15595 5.58361C6.89244 5.74702 6.67973 5.9807 6.54175 6.25837Z" stroke="black" stroke-width="1.25" stroke-linecap="round" stroke-linejoin="round"/>
<path d="M7 15.3334H7.00833" stroke="black" stroke-width="1.25" stroke-linecap="round" stroke-linejoin="round"/>
<path d="M10.3333 15.3334H10.3416" stroke="black" stroke-width="1.25" stroke-linecap="round" stroke-linejoin="round"/>
</svg>
