<svg viewBox="0 0 24 24" xmlns="http://www.w3.org/2000/svg">
<path fill="currentColor" stroke="currentColor" stroke-linecap="round" stroke-linejoin="round" d="M4.5 17V12C4.5 10.0109 5.29018 8.10322 6.6967 6.6967C8.10322 5.29018 10.0109 4.5 12 4.5C13.9891 4.5 15.8968 5.29018 17.3033 6.6967C18.7098 8.10322 19.5 10.0109 19.5 12V17"/>
<path fill="currentColor" stroke="currentColor" stroke-linecap="round" stroke-linejoin="round" d="M19.5 17.8333C19.5 18.2753 19.3244 18.6992 19.0118 19.0118C18.6993 19.3244 18.2754 19.5 17.8333 19.5H17C16.558 19.5 16.134 19.3244 15.8215 19.0118C15.5089 18.6992 15.3333 18.2753 15.3333 17.8333V15.3333C15.3333 14.8913 15.5089 14.4673 15.8215 14.1548C16.134 13.8422 16.558 13.6666 17 13.6666H19.5V17.8333ZM4.5 17.8333C4.5 18.2753 4.67559 18.6992 4.98816 19.0118C5.30072 19.3244 5.72464 19.5 6.16667 19.5H7C7.44203 19.5 7.86595 19.3244 8.17851 19.0118C8.49107 18.6992 8.66667 18.2753 8.66667 17.8333V15.3333C8.66667 14.8913 8.49107 14.4673 8.17851 14.1548C7.86595 13.8422 7.44203 13.6666 7 13.6666H4.5V17.8333Z"/>
</svg>
