<svg viewBox="0 0 24 24" xmlns="http://www.w3.org/2000/svg">
<path fill="currentColor" stroke="currentColor" stroke-linecap="round" stroke-linejoin="round" d="M19.3666 5.84172C18.941 5.41589 18.4356 5.0781 17.8794 4.84763C17.3232 4.61716 16.727 4.49854 16.1249 4.49854C15.5229 4.49854 14.9267 4.61716 14.3705 4.84763C13.8143 5.0781 13.3089 5.41589 12.8833 5.84172L11.9999 6.72506L11.1166 5.84172C10.2569 4.98198 9.0908 4.49898 7.87494 4.49898C6.65908 4.49898 5.49301 4.98198 4.63327 5.84172C3.77353 6.70147 3.29053 7.86753 3.29053 9.08339C3.29053 10.2993 3.77353 11.4653 4.63327 12.3251L5.5166 13.2084L11.9999 19.6917L18.4833 13.2084L19.3666 12.3251C19.7924 11.8994 20.1302 11.3941 20.3607 10.8379C20.5912 10.2816 20.7098 9.68546 20.7098 9.08339C20.7098 8.48132 20.5912 7.88514 20.3607 7.32893C20.1302 6.77271 19.7924 6.26735 19.3666 5.84172Z"/>
</svg>
