<svg viewBox="0 0 24 24" xmlns="http://www.w3.org/2000/svg">
<path fill="currentColor" stroke="currentColor" stroke-linecap="round" stroke-linejoin="round" d="M12.0001 20.3333C16.6025 20.3333 20.3334 16.6023 20.3334 12C20.3334 7.39759 16.6025 3.66663 12.0001 3.66663C7.39771 3.66663 3.66675 7.39759 3.66675 12C3.66675 16.6023 7.39771 20.3333 12.0001 20.3333Z"/>
<path fill="currentColor" stroke="currentColor" stroke-linecap="round" stroke-linejoin="round" d="M9.57495 9.49999C9.77087 8.94304 10.1576 8.47341 10.6666 8.17426C11.1756 7.87512 11.774 7.76577 12.3559 7.86558C12.9378 7.96539 13.4656 8.26792 13.8458 8.71959C14.2261 9.17126 14.4342 9.74292 14.4333 10.3333C14.4333 12 11.9333 12.8333 11.9333 12.8333"/>
<path fill="currentColor" stroke="currentColor" stroke-linecap="round" stroke-linejoin="round" d="M12 16.1666H12.0083"/>
</svg>
