<svg width="24" height="24" viewBox="0 0 24 24" fill="none" xmlns="http://www.w3.org/2000/svg">
<path d="M19.5 15.3333V8.66663C19.4997 8.37435 19.4225 8.0873 19.2763 7.83426C19.13 7.58122 18.9198 7.37109 18.6667 7.22496L12.8333 3.89163C12.58 3.74535 12.2926 3.66833 12 3.66833C11.7074 3.66833 11.42 3.74535 11.1667 3.89163L5.33333 7.22496C5.08022 7.37109 4.86998 7.58122 4.72372 7.83426C4.57745 8.0873 4.5003 8.37435 4.5 8.66663V15.3333C4.5003 15.6256 4.57745 15.9126 4.72372 16.1657C4.86998 16.4187 5.08022 16.6288 5.33333 16.775L11.1667 20.1083C11.42 20.2546 11.7074 20.3316 12 20.3316C12.2926 20.3316 12.58 20.2546 12.8333 20.1083L18.6667 16.775C18.9198 16.6288 19.13 16.4187 19.2763 16.1657C19.4225 15.9126 19.4997 15.6256 19.5 15.3333Z" stroke="black" stroke-width="1.25" stroke-linecap="round" stroke-linejoin="round"/>
</svg>
