<svg width="24" height="24" viewBox="0 0 24 24" fill="none" xmlns="http://www.w3.org/2000/svg">
<path d="M17.8333 4.5H6.16667C5.24619 4.5 4.5 5.24619 4.5 6.16667V17.8333C4.5 18.7538 5.24619 19.5 6.16667 19.5H17.8333C18.7538 19.5 19.5 18.7538 19.5 17.8333V6.16667C19.5 5.24619 18.7538 4.5 17.8333 4.5Z" stroke="black" stroke-width="1.25" stroke-linecap="round" stroke-linejoin="round"/>
<path d="M9.08325 10.3334C9.77361 10.3334 10.3333 9.77373 10.3333 9.08337C10.3333 8.39302 9.77361 7.83337 9.08325 7.83337C8.3929 7.83337 7.83325 8.39302 7.83325 9.08337C7.83325 9.77373 8.3929 10.3334 9.08325 10.3334Z" stroke="black" stroke-width="1.25" stroke-linecap="round" stroke-linejoin="round"/>
<path d="M19.5001 14.5L15.3334 10.3334L6.16675 19.5" stroke="black" stroke-width="1.25" stroke-linecap="round" stroke-linejoin="round"/>
</svg>
