<svg viewBox="0 0 24 24" xmlns="http://www.w3.org/2000/svg">
<path fill="currentColor" stroke="currentColor" stroke-linecap="round" stroke-linejoin="round" d="M16.1667 3.66663H7.83341C5.53223 3.66663 3.66675 5.53211 3.66675 7.83329V16.1666C3.66675 18.4678 5.53223 20.3333 7.83341 20.3333H16.1667C18.4679 20.3333 20.3334 18.4678 20.3334 16.1666V7.83329C20.3334 5.53211 18.4679 3.66663 16.1667 3.66663Z"/>
<path fill="currentColor" stroke="currentColor" stroke-linecap="round" stroke-linejoin="round" d="M15.3333 11.475C15.4361 12.1685 15.3176 12.8769 14.9947 13.4992C14.6718 14.1215 14.1609 14.6262 13.5346 14.9414C12.9083 15.2566 12.1986 15.3663 11.5064 15.255C10.8142 15.1436 10.1747 14.8167 9.67895 14.321C9.18318 13.8252 8.85636 13.1857 8.74497 12.4935C8.63359 11.8013 8.74331 11.0916 9.05852 10.4653C9.37374 9.83905 9.87841 9.32812 10.5007 9.00521C11.1231 8.68229 11.8314 8.56383 12.5249 8.66667C13.2324 8.77158 13.8873 9.10123 14.393 9.60693C14.8987 10.1126 15.2283 10.7676 15.3333 11.475Z"/>
<path fill="currentColor" stroke="currentColor" stroke-linecap="round" stroke-linejoin="round" d="M16.5833 7.41663H16.5916"/>
</svg>
