<svg width="24" height="24" viewBox="0 0 24 24" fill="none" xmlns="http://www.w3.org/2000/svg">
<path d="M19.5 3.66663L17.8333 5.33329M17.8333 5.33329L20.3333 7.83329L17.4167 10.75L14.9167 8.24996M17.8333 5.33329L14.9167 8.24996M11.4917 11.675C11.9219 12.0995 12.264 12.605 12.4981 13.1623C12.7322 13.7196 12.8538 14.3177 12.8558 14.9222C12.8579 15.5266 12.7403 16.1255 12.5099 16.6844C12.2795 17.2432 11.9409 17.751 11.5134 18.1784C11.086 18.6058 10.5783 18.9445 10.0194 19.1749C9.46055 19.4053 8.86165 19.5228 8.25718 19.5208C7.65271 19.5188 7.0546 19.3972 6.49731 19.1631C5.94002 18.929 5.43454 18.5869 5.00998 18.1566C4.17509 17.2922 3.71312 16.1344 3.72356 14.9327C3.734 13.731 4.21603 12.5814 5.06582 11.7316C5.9156 10.8818 7.06516 10.3998 8.2669 10.3894C9.46863 10.3789 10.6264 10.8409 11.4908 11.6758L11.4917 11.675ZM11.4917 11.675L14.9167 8.24996" stroke="black" stroke-width="1.25" stroke-linecap="round" stroke-linejoin="round"/>
</svg>
