<svg viewBox="0 0 24 24" xmlns="http://www.w3.org/2000/svg">
<path fill="currentColor" stroke="currentColor" stroke-linecap="round" stroke-linejoin="round" d="M12.0001 20.3333C16.6025 20.3333 20.3334 16.6023 20.3334 12C20.3334 7.39759 16.6025 3.66663 12.0001 3.66663C7.39771 3.66663 3.66675 7.39759 3.66675 12C3.66675 16.6023 7.39771 20.3333 12.0001 20.3333Z"/>
<path fill="currentColor" stroke="currentColor" stroke-linecap="round" stroke-linejoin="round" d="M12.0001 15.3333C13.841 15.3333 15.3334 13.8409 15.3334 12C15.3334 10.159 13.841 8.66663 12.0001 8.66663C10.1591 8.66663 8.66675 10.159 8.66675 12C8.66675 13.8409 10.1591 15.3333 12.0001 15.3333Z"/>
<path fill="currentColor" stroke="currentColor" stroke-linecap="round" stroke-linejoin="round" d="M6.1084 6.10828L9.64173 9.64161"/>
<path fill="currentColor" stroke="currentColor" stroke-linecap="round" stroke-linejoin="round" d="M14.3584 14.3583L17.8917 17.8916"/>
<path fill="currentColor" stroke="currentColor" stroke-linecap="round" stroke-linejoin="round" d="M14.3584 9.64161L17.8917 6.10828"/>
<path fill="currentColor" stroke="currentColor" stroke-linecap="round" stroke-linejoin="round" d="M14.3584 9.64162L17.3001 6.69995"/>
<path fill="currentColor" stroke="currentColor" stroke-linecap="round" stroke-linejoin="round" d="M6.1084 17.8916L9.64173 14.3583"/>
</svg>
