<svg viewBox="0 0 24 24" xmlns="http://www.w3.org/2000/svg">
<path fill="currentColor" stroke="currentColor" stroke-linecap="round" stroke-linejoin="round" d="M15.3333 8.66663C16.6593 8.66663 17.9311 9.19341 18.8688 10.1311C19.8065 11.0688 20.3333 12.3405 20.3333 13.6666V19.5H16.9999V13.6666C16.9999 13.2246 16.8243 12.8007 16.5118 12.4881C16.1992 12.1756 15.7753 12 15.3333 12C14.8912 12 14.4673 12.1756 14.1547 12.4881C13.8422 12.8007 13.6666 13.2246 13.6666 13.6666V19.5H10.3333V13.6666C10.3333 12.3405 10.86 11.0688 11.7977 10.1311C12.7354 9.19341 14.0072 8.66663 15.3333 8.66663Z"/>
<path fill="currentColor" stroke="currentColor" stroke-linecap="round" stroke-linejoin="round" d="M7.00008 9.5H3.66675V19.5H7.00008V9.5Z"/>
<path fill="currentColor" stroke="currentColor" stroke-linecap="round" stroke-linejoin="round" d="M5.33341 6.99996C6.25389 6.99996 7.00008 6.25377 7.00008 5.33329C7.00008 4.41282 6.25389 3.66663 5.33341 3.66663C4.41294 3.66663 3.66675 4.41282 3.66675 5.33329C3.66675 6.25377 4.41294 6.99996 5.33341 6.99996Z"/>
</svg>
