<svg viewBox="0 0 24 24" xmlns="http://www.w3.org/2000/svg">
<path fill="currentColor" stroke="currentColor" stroke-linecap="round" stroke-linejoin="round" d="M14.4999 7.83337H16.9999C17.5471 7.83337 18.0889 7.94115 18.5944 8.15054C19.1 8.35994 19.5593 8.66685 19.9462 9.05376C20.3331 9.44067 20.64 9.9 20.8494 10.4055C21.0588 10.911 21.1666 11.4529 21.1666 12C21.1666 12.5472 21.0588 13.089 20.8494 13.5946C20.64 14.1001 20.3331 14.5594 19.9462 14.9463C19.5593 15.3332 19.1 15.6401 18.5944 15.8495C18.0889 16.0589 17.5471 16.1667 16.9999 16.1667H14.4999M9.49992 16.1667H6.99992C6.45274 16.1667 5.91093 16.0589 5.4054 15.8495C4.89988 15.6401 4.44055 15.3332 4.05364 14.9463C3.27224 14.1649 2.83325 13.1051 2.83325 12C2.83325 10.895 3.27224 9.83516 4.05364 9.05376C4.83504 8.27236 5.89485 7.83337 6.99992 7.83337H9.49992"/>
<path fill="currentColor" stroke="currentColor" stroke-linecap="round" stroke-linejoin="round" d="M8.66675 12H15.3334"/>
</svg>
