<svg viewBox="0 0 24 24" xmlns="http://www.w3.org/2000/svg">
<path fill="currentColor" stroke="currentColor" stroke-linecap="round" stroke-linejoin="round" d="M8.66667 4.5H6.16667C5.72464 4.5 5.30072 4.67559 4.98816 4.98816C4.67559 5.30072 4.5 5.72464 4.5 6.16667V8.66667M19.5 8.66667V6.16667C19.5 5.72464 19.3244 5.30072 19.0118 4.98816C18.6993 4.67559 18.2754 4.5 17.8333 4.5H15.3333M15.3333 19.5H17.8333C18.2754 19.5 18.6993 19.3244 19.0118 19.0118C19.3244 18.6993 19.5 18.2754 19.5 17.8333V15.3333M4.5 15.3333V17.8333C4.5 18.2754 4.67559 18.6993 4.98816 19.0118C5.30072 19.3244 5.72464 19.5 6.16667 19.5H8.66667"/>
</svg>
