<svg width="24" height="24" viewBox="0 0 24 24" fill="none" xmlns="http://www.w3.org/2000/svg">
<path d="M2.83325 2.83337L21.1666 21.1667" stroke="black" stroke-width="1.25" stroke-linecap="round" stroke-linejoin="round"/>
<path d="M9.5 9.5V12C9.50043 12.4941 9.64729 12.9771 9.92203 13.3878C10.1968 13.7985 10.587 14.1186 11.0436 14.3076C11.5001 14.4967 12.0025 14.5462 12.4871 14.4499C12.9718 14.3536 13.417 14.1158 13.7667 13.7667M14.5 9.78333V5.33333C14.5006 4.71335 14.2709 4.11526 13.8553 3.65516C13.4398 3.19506 12.8681 2.90578 12.2512 2.84347C11.6344 2.78117 11.0164 2.95028 10.5173 3.31799C10.0181 3.68569 9.67337 4.22575 9.55 4.83333" stroke="black" stroke-width="1.25" stroke-linecap="round" stroke-linejoin="round"/>
<path d="M16.1667 16.125C15.3531 16.9554 14.3101 17.5238 13.1713 17.7572C12.0326 17.9907 10.85 17.8786 9.77541 17.4353C8.70079 16.992 7.78313 16.2378 7.14014 15.2693C6.49714 14.3009 6.15816 13.1625 6.16666 12V10.3334M17.8333 10.3334V12C17.833 12.3437 17.8024 12.6867 17.7417 13.025" stroke="black" stroke-width="1.25" stroke-linecap="round" stroke-linejoin="round"/>
<path d="M12 17.8334V21.1667" stroke="black" stroke-width="1.25" stroke-linecap="round" stroke-linejoin="round"/>
<path d="M8.66675 21.1666H15.3334" stroke="black" stroke-width="1.25" stroke-linecap="round" stroke-linejoin="round"/>
</svg>
