<svg viewBox="0 0 24 24" xmlns="http://www.w3.org/2000/svg">
<path fill="currentColor" stroke="currentColor" stroke-linecap="round" stroke-linejoin="round" d="M8.66667 4.5V7C8.66667 7.44203 8.49107 7.86595 8.17851 8.17851C7.86595 8.49107 7.44203 8.66667 7 8.66667H4.5M19.5 8.66667H17C16.558 8.66667 16.134 8.49107 15.8215 8.17851C15.5089 7.86595 15.3333 7.44203 15.3333 7V4.5M15.3333 19.5V17C15.3333 16.558 15.5089 16.134 15.8215 15.8215C16.134 15.5089 16.558 15.3333 17 15.3333H19.5M4.5 15.3333H7C7.44203 15.3333 7.86595 15.5089 8.17851 15.8215C8.49107 16.134 8.66667 16.558 8.66667 17V19.5"/>
</svg>
