<svg viewBox="0 0 24 24" xmlns="http://www.w3.org/2000/svg">
<path fill="currentColor" stroke="currentColor" stroke-linecap="round" stroke-linejoin="round" d="M12.0001 12.8333C12.4603 12.8333 12.8334 12.4602 12.8334 12C12.8334 11.5397 12.4603 11.1666 12.0001 11.1666C11.5398 11.1666 11.1667 11.5397 11.1667 12C11.1667 12.4602 11.5398 12.8333 12.0001 12.8333Z"/>
<path fill="currentColor" stroke="currentColor" stroke-linecap="round" stroke-linejoin="round" d="M12.0001 7.00004C12.4603 7.00004 12.8334 6.62694 12.8334 6.16671C12.8334 5.70647 12.4603 5.33337 12.0001 5.33337C11.5398 5.33337 11.1667 5.70647 11.1667 6.16671C11.1667 6.62694 11.5398 7.00004 12.0001 7.00004Z"/>
<path fill="currentColor" stroke="currentColor" stroke-linecap="round" stroke-linejoin="round" d="M12.0001 18.6667C12.4603 18.6667 12.8334 18.2936 12.8334 17.8333C12.8334 17.3731 12.4603 17 12.0001 17C11.5398 17 11.1667 17.3731 11.1667 17.8333C11.1667 18.2936 11.5398 18.6667 12.0001 18.6667Z"/>
</svg>
