<svg viewBox="0 0 24 24" xmlns="http://www.w3.org/2000/svg">
<path fill="currentColor" stroke="currentColor" stroke-linecap="round" stroke-linejoin="round" d="M12.0001 12.8333C12.4603 12.8333 12.8334 12.4602 12.8334 12C12.8334 11.5397 12.4603 11.1666 12.0001 11.1666C11.5398 11.1666 11.1667 11.5397 11.1667 12C11.1667 12.4602 11.5398 12.8333 12.0001 12.8333Z"/>
<path fill="currentColor" stroke="currentColor" stroke-linecap="round" stroke-linejoin="round" d="M17.8333 12.8333C18.2936 12.8333 18.6667 12.4602 18.6667 12C18.6667 11.5397 18.2936 11.1666 17.8333 11.1666C17.3731 11.1666 17 11.5397 17 12C17 12.4602 17.3731 12.8333 17.8333 12.8333Z"/>
<path fill="currentColor" stroke="currentColor" stroke-linecap="round" stroke-linejoin="round" d="M6.16659 12.8333C6.62682 12.8333 6.99992 12.4602 6.99992 12C6.99992 11.5397 6.62682 11.1666 6.16659 11.1666C5.70635 11.1666 5.33325 11.5397 5.33325 12C5.33325 12.4602 5.70635 12.8333 6.16659 12.8333Z"/>
</svg>
