<svg viewBox="0 0 24 24" xmlns="http://www.w3.org/2000/svg">
<path fill="currentColor" stroke="currentColor" stroke-linecap="round" stroke-linejoin="round" d="M21.1667 7.83337V2.83337H16.1667"/>
<path fill="currentColor" stroke="currentColor" stroke-linecap="round" stroke-linejoin="round" d="M15.3333 8.66671L21.1666 2.83337"/>
<path fill="currentColor" stroke="currentColor" stroke-linecap="round" stroke-linejoin="round" d="M20.3334 16.1V18.6C20.3344 18.8321 20.2868 19.0618 20.1939 19.2745C20.1009 19.4871 19.9645 19.678 19.7935 19.8349C19.6225 19.9918 19.4206 20.1113 19.2007 20.1856C18.9809 20.26 18.7479 20.2876 18.5168 20.2667C15.9525 19.9881 13.4893 19.1118 11.3251 17.7084C9.31163 16.4289 7.60455 14.7219 6.32511 12.7084C4.91676 10.5344 4.04031 8.0592 3.76677 5.48337C3.74595 5.25293 3.77334 5.02067 3.84719 4.80139C3.92105 4.58211 4.03975 4.38061 4.19575 4.20972C4.35174 4.03883 4.54161 3.9023 4.75327 3.80881C4.96492 3.71532 5.19372 3.66692 5.42511 3.66671H7.92511C8.32953 3.66273 8.7216 3.80594 9.02824 4.06965C9.33488 4.33336 9.53517 4.69958 9.59177 5.10004C9.69729 5.9001 9.89298 6.68565 10.1751 7.44171C10.2872 7.73998 10.3115 8.06414 10.245 8.37577C10.1786 8.68741 10.0242 8.97347 9.80011 9.20004L8.74177 10.2584C9.92807 12.3447 11.6555 14.0721 13.7418 15.2584L14.8001 14.2C15.0267 13.976 15.3127 13.8216 15.6244 13.7551C15.936 13.6887 16.2602 13.7129 16.5584 13.825C17.3145 14.1072 18.1001 14.3029 18.9001 14.4084C19.3049 14.4655 19.6746 14.6694 19.9389 14.9813C20.2032 15.2932 20.3436 15.6914 20.3334 16.1Z"/>
</svg>
