<svg viewBox="0 0 24 24" xmlns="http://www.w3.org/2000/svg">
<path fill="currentColor" stroke="currentColor" stroke-linecap="round" stroke-linejoin="round" d="M10.9001 13.0917C11.7458 13.9382 12.7016 14.6669 13.7418 15.2584L14.8001 14.2C15.0267 13.976 15.3127 13.8216 15.6244 13.7551C15.936 13.6887 16.2602 13.7129 16.5584 13.825C17.3145 14.1072 18.1001 14.3029 18.9001 14.4084C19.3006 14.465 19.6668 14.6653 19.9305 14.9719C20.1942 15.2785 20.3374 15.6706 20.3334 16.075V18.575C20.3344 18.8071 20.2868 19.0368 20.1939 19.2495C20.1009 19.4621 19.9645 19.653 19.7935 19.8099C19.6225 19.9668 19.4206 20.0863 19.2007 20.1606C18.9809 20.235 18.7479 20.2626 18.5168 20.2417C15.9525 19.9631 13.4893 19.0868 11.3251 17.6834C10.3212 17.0459 9.39055 16.2997 8.55011 15.4584M6.32511 12.675C4.92165 10.5109 4.04541 8.04768 3.76677 5.48337C3.74595 5.25293 3.77334 5.02067 3.84719 4.80139C3.92105 4.58211 4.03975 4.38061 4.19575 4.20972C4.35174 4.03883 4.54161 3.9023 4.75327 3.80881C4.96492 3.71532 5.19372 3.66692 5.42511 3.66671H7.92511C8.32953 3.66273 8.7216 3.80594 9.02824 4.06965C9.33488 4.33336 9.53517 4.69958 9.59177 5.10004C9.69729 5.9001 9.89298 6.68565 10.1751 7.44171C10.2872 7.73998 10.3115 8.06414 10.245 8.37577C10.1786 8.68741 10.0242 8.97347 9.80011 9.20004L8.74177 10.2584"/>
<path fill="currentColor" stroke="currentColor" stroke-linecap="round" stroke-linejoin="round" d="M21.1666 2.83337L2.83325 21.1667"/>
</svg>
