<svg viewBox="0 0 24 24" xmlns="http://www.w3.org/2000/svg">
<path fill="currentColor" stroke="currentColor" stroke-linecap="round" stroke-linejoin="round" d="M19.6749 15.2416C19.1448 16.4953 18.3156 17.6001 17.2598 18.4594C16.2041 19.3186 14.9539 19.9061 13.6186 20.1706C12.2833 20.4351 10.9036 20.3684 9.60005 19.9764C8.29649 19.5845 7.10878 18.8792 6.14078 17.9222C5.17277 16.9651 4.45394 15.7856 4.04712 14.4866C3.64031 13.1876 3.5579 11.8087 3.80709 10.4705C4.05629 9.13226 4.62951 7.87547 5.47663 6.80997C6.32376 5.74447 7.419 4.90271 8.6666 4.35828"/>
<path fill="currentColor" stroke="currentColor" stroke-linecap="round" stroke-linejoin="round" d="M20.3333 12C20.3333 10.9056 20.1178 9.82198 19.699 8.81093C19.2802 7.79988 18.6664 6.88122 17.8926 6.1074C17.1187 5.33358 16.2001 4.71975 15.189 4.30096C14.178 3.88217 13.0943 3.66663 12 3.66663V12H20.3333Z"/>
</svg>
