<svg viewBox="0 0 24 24" xmlns="http://www.w3.org/2000/svg">
<path fill="currentColor" stroke="currentColor" stroke-linecap="round" stroke-linejoin="round" d="M5.33341 4.5H18.6667C19.1088 4.5 19.5327 4.67559 19.8453 4.98816C20.1578 5.30072 20.3334 5.72464 20.3334 6.16667V11.1667C20.3334 13.3768 19.4554 15.4964 17.8926 17.0592C16.3298 18.622 14.2102 19.5 12.0001 19.5C10.9057 19.5 9.8221 19.2845 8.81105 18.8657C7.80001 18.4469 6.88135 17.833 6.10752 17.0592C4.54472 15.4964 3.66675 13.3768 3.66675 11.1667V6.16667C3.66675 5.72464 3.84234 5.30072 4.1549 4.98816C4.46746 4.67559 4.89139 4.5 5.33341 4.5Z"/>
<path fill="currentColor" stroke="currentColor" stroke-linecap="round" stroke-linejoin="round" d="M8.66675 10.3334L12.0001 13.6667L15.3334 10.3334"/>
</svg>
