<svg width="24" height="24" viewBox="0 0 24 24" fill="none" xmlns="http://www.w3.org/2000/svg">
<path d="M7 9.49996V3.66663H17V9.49996" stroke="black" stroke-width="1.25" stroke-linecap="round" stroke-linejoin="round"/>
<path d="M7.00008 17H5.33341C4.89139 17 4.46746 16.8244 4.1549 16.5118C3.84234 16.1993 3.66675 15.7754 3.66675 15.3333V11.1667C3.66675 10.7246 3.84234 10.3007 4.1549 9.98816C4.46746 9.6756 4.89139 9.5 5.33341 9.5H18.6667C19.1088 9.5 19.5327 9.6756 19.8453 9.98816C20.1578 10.3007 20.3334 10.7246 20.3334 11.1667V15.3333C20.3334 15.7754 20.1578 16.1993 19.8453 16.5118C19.5327 16.8244 19.1088 17 18.6667 17H17.0001" stroke="black" stroke-width="1.25" stroke-linecap="round" stroke-linejoin="round"/>
<path d="M17 13.6666H7V20.3333H17V13.6666Z" stroke="black" stroke-width="1.25" stroke-linecap="round" stroke-linejoin="round"/>
</svg>
