<svg width="24" height="24" viewBox="0 0 24 24" fill="none" xmlns="http://www.w3.org/2000/svg">
<path d="M11.9999 13.6667C12.9204 13.6667 13.6666 12.9205 13.6666 12C13.6666 11.0796 12.9204 10.3334 11.9999 10.3334C11.0794 10.3334 10.3333 11.0796 10.3333 12C10.3333 12.9205 11.0794 13.6667 11.9999 13.6667Z" stroke="black" stroke-width="1.25" stroke-linecap="round" stroke-linejoin="round"/>
<path d="M15.5333 8.46661C15.9982 8.93098 16.367 9.48242 16.6186 10.0894C16.8703 10.6964 16.9998 11.347 16.9998 12.0041C16.9998 12.6612 16.8703 13.3118 16.6186 13.9188C16.367 14.5258 15.9982 15.0772 15.5333 15.5416M8.46668 15.5333C8.0018 15.0689 7.633 14.5175 7.38138 13.9105C7.12976 13.3035 7.00024 12.6529 7.00024 11.9958C7.00024 11.3387 7.12976 10.6881 7.38138 10.0811C7.633 9.47408 8.0018 8.92264 8.46668 8.45828M17.8917 6.10828C19.4539 7.67101 20.3316 9.79024 20.3316 11.9999C20.3316 14.2096 19.4539 16.3289 17.8917 17.8916M6.10834 17.8916C4.54608 16.3289 3.66846 14.2096 3.66846 11.9999C3.66846 9.79024 4.54608 7.67101 6.10834 6.10828" stroke="black" stroke-width="1.25" stroke-linecap="round" stroke-linejoin="round"/>
</svg>
