<svg viewBox="0 0 24 24" xmlns="http://www.w3.org/2000/svg">
<path fill="currentColor" stroke="currentColor" stroke-linecap="round" stroke-linejoin="round" d="M2.83325 5.33337V10.3334H7.83325"/>
<path fill="currentColor" stroke="currentColor" stroke-linecap="round" stroke-linejoin="round" d="M21.1667 18.6666V13.6666H16.1667"/>
<path fill="currentColor" stroke="currentColor" stroke-linecap="round" stroke-linejoin="round" d="M19.0749 9.49998C18.6523 8.30564 17.934 7.23782 16.987 6.39616C16.0401 5.55451 14.8954 4.96645 13.6597 4.68686C12.424 4.40727 11.1376 4.44527 9.92059 4.79729C8.70356 5.14932 7.59554 5.80391 6.69992 6.69998L2.83325 10.3333M21.1666 13.6666L17.2999 17.3C16.4043 18.1961 15.2963 18.8506 14.0792 19.2027C12.8622 19.5547 11.5758 19.5927 10.3402 19.3131C9.10447 19.0335 7.95975 18.4455 7.01281 17.6038C6.06586 16.7621 5.34756 15.6943 4.92492 14.5"/>
</svg>
