<svg viewBox="0 0 24 24" xmlns="http://www.w3.org/2000/svg">
<path fill="currentColor" stroke="currentColor" stroke-linecap="round" stroke-linejoin="round" d="M21.1667 5.33337V10.3334H16.1667"/>
<path fill="currentColor" stroke="currentColor" stroke-linecap="round" stroke-linejoin="round" d="M2.83325 18.6666V13.6666H7.83325"/>
<path fill="currentColor" stroke="currentColor" stroke-linecap="round" stroke-linejoin="round" d="M4.92492 9.49998C5.34756 8.30564 6.06586 7.23782 7.01281 6.39616C7.95975 5.55451 9.10447 4.96645 10.3402 4.68686C11.5758 4.40727 12.8622 4.44527 14.0792 4.79729C15.2963 5.14932 16.4043 5.80391 17.2999 6.69998L21.1666 10.3333M2.83325 13.6666L6.69992 17.3C7.59554 18.1961 8.70356 18.8506 9.92059 19.2027C11.1376 19.5547 12.424 19.5927 13.6597 19.3131C14.8954 19.0335 16.0401 18.4455 16.987 17.6038C17.934 16.7621 18.6523 15.6943 19.0749 14.5"/>
</svg>
