<svg viewBox="0 0 24 24" xmlns="http://www.w3.org/2000/svg">
<path fill="currentColor" stroke="currentColor" stroke-linecap="round" stroke-linejoin="round" d="M7 3.66663L4.5 6.99996V18.6666C4.5 19.1087 4.67559 19.5326 4.98816 19.8451C5.30072 20.1577 5.72464 20.3333 6.16667 20.3333H17.8333C18.2754 20.3333 18.6993 20.1577 19.0118 19.8451C19.3244 19.5326 19.5 19.1087 19.5 18.6666V6.99996L17 3.66663H7Z"/>
<path fill="currentColor" stroke="currentColor" stroke-linecap="round" stroke-linejoin="round" d="M4.5 7H19.5"/>
<path fill="currentColor" stroke="currentColor" stroke-linecap="round" stroke-linejoin="round" d="M15.3334 10.3334C15.3334 11.2174 14.9822 12.0653 14.3571 12.6904C13.732 13.3155 12.8841 13.6667 12.0001 13.6667C11.116 13.6667 10.2682 13.3155 9.64306 12.6904C9.01794 12.0653 8.66675 11.2174 8.66675 10.3334"/>
</svg>
