<svg width="24" height="24" viewBox="0 0 24 24" fill="none" xmlns="http://www.w3.org/2000/svg">
<path d="M9.50008 20.3333C9.96032 20.3333 10.3334 19.9602 10.3334 19.5C10.3334 19.0397 9.96032 18.6666 9.50008 18.6666C9.03984 18.6666 8.66675 19.0397 8.66675 19.5C8.66675 19.9602 9.03984 20.3333 9.50008 20.3333Z" stroke="black" stroke-width="1.25" stroke-linecap="round" stroke-linejoin="round"/>
<path d="M18.6666 20.3333C19.1268 20.3333 19.4999 19.9602 19.4999 19.5C19.4999 19.0397 19.1268 18.6666 18.6666 18.6666C18.2063 18.6666 17.8333 19.0397 17.8333 19.5C17.8333 19.9602 18.2063 20.3333 18.6666 20.3333Z" stroke="black" stroke-width="1.25" stroke-linecap="round" stroke-linejoin="round"/>
<path d="M2.83325 2.83337H6.16658L8.39992 13.9917C8.47612 14.3754 8.68484 14.72 8.98954 14.9653C9.29424 15.2106 9.6755 15.3409 10.0666 15.3334H18.1666C18.5577 15.3409 18.9389 15.2106 19.2436 14.9653C19.5483 14.72 19.757 14.3754 19.8333 13.9917L21.1666 7.00004H6.99992" stroke="black" stroke-width="1.25" stroke-linecap="round" stroke-linejoin="round"/>
</svg>
