<svg viewBox="0 0 24 24" xmlns="http://www.w3.org/2000/svg">
<path fill="currentColor" stroke="currentColor" stroke-linecap="round" stroke-linejoin="round" d="M14.0833 10.3334C13.3916 10.3334 12.8333 9.77508 12.8333 9.08341V4.91675C12.8333 4.22508 13.3916 3.66675 14.0833 3.66675C14.7749 3.66675 15.3333 4.22508 15.3333 4.91675V9.08341C15.3333 9.77508 14.7749 10.3334 14.0833 10.3334Z"/>
<path fill="currentColor" stroke="currentColor" stroke-linecap="round" stroke-linejoin="round" d="M19.0833 10.3333H17.8333V9.08325C17.8333 8.39159 18.3916 7.83325 19.0833 7.83325C19.7749 7.83325 20.3333 8.39159 20.3333 9.08325C20.3333 9.77492 19.7749 10.3333 19.0833 10.3333Z"/>
<path fill="currentColor" stroke="currentColor" stroke-linecap="round" stroke-linejoin="round" d="M9.91675 13.6667C10.6084 13.6667 11.1667 14.2251 11.1667 14.9167V19.0834C11.1667 19.7751 10.6084 20.3334 9.91675 20.3334C9.22508 20.3334 8.66675 19.7751 8.66675 19.0834V14.9167C8.66675 14.2251 9.22508 13.6667 9.91675 13.6667Z"/>
<path fill="currentColor" stroke="currentColor" stroke-linecap="round" stroke-linejoin="round" d="M4.91675 13.6667H6.16675V14.9167C6.16675 15.6084 5.60841 16.1667 4.91675 16.1667C4.22508 16.1667 3.66675 15.6084 3.66675 14.9167C3.66675 14.2251 4.22508 13.6667 4.91675 13.6667Z"/>
<path fill="currentColor" stroke="currentColor" stroke-linecap="round" stroke-linejoin="round" d="M13.6667 14.0833C13.6667 13.3916 14.2251 12.8333 14.9167 12.8333H19.0834C19.7751 12.8333 20.3334 13.3916 20.3334 14.0833C20.3334 14.7749 19.7751 15.3333 19.0834 15.3333H14.9167C14.2251 15.3333 13.6667 14.7749 13.6667 14.0833Z"/>
<path fill="currentColor" stroke="currentColor" stroke-linecap="round" stroke-linejoin="round" d="M14.9167 17.8333H13.6667V19.0833C13.6667 19.7749 14.2251 20.3333 14.9167 20.3333C15.6084 20.3333 16.1667 19.7749 16.1667 19.0833C16.1667 18.3916 15.6084 17.8333 14.9167 17.8333Z"/>
<path fill="currentColor" stroke="currentColor" stroke-linecap="round" stroke-linejoin="round" d="M10.3334 9.91675C10.3334 9.22508 9.77508 8.66675 9.08341 8.66675H4.91675C4.22508 8.66675 3.66675 9.22508 3.66675 9.91675C3.66675 10.6084 4.22508 11.1667 4.91675 11.1667H9.08341C9.77508 11.1667 10.3334 10.6084 10.3334 9.91675Z"/>
<path fill="currentColor" stroke="currentColor" stroke-linecap="round" stroke-linejoin="round" d="M9.08325 6.16675H10.3333V4.91675C10.3333 4.22508 9.77492 3.66675 9.08325 3.66675C8.39159 3.66675 7.83325 4.22508 7.83325 4.91675C7.83325 5.60841 8.39159 6.16675 9.08325 6.16675Z"/>
</svg>
