<svg viewBox="0 0 24 24" xmlns="http://www.w3.org/2000/svg">
<path fill="currentColor" stroke="currentColor" stroke-linecap="round" stroke-linejoin="round" d="M12.0001 20.3334C16.6025 20.3334 20.3334 16.6025 20.3334 12.0001C20.3334 7.39771 16.6025 3.66675 12.0001 3.66675C7.39771 3.66675 3.66675 7.39771 3.66675 12.0001C3.66675 16.6025 7.39771 20.3334 12.0001 20.3334Z"/>
<path fill="currentColor" stroke="currentColor" stroke-linecap="round" stroke-linejoin="round" d="M12 17C14.7614 17 17 14.7614 17 12C17 9.23858 14.7614 7 12 7C9.23858 7 7 9.23858 7 12C7 14.7614 9.23858 17 12 17Z"/>
<path fill="currentColor" stroke="currentColor" stroke-linecap="round" stroke-linejoin="round" d="M11.9999 13.6666C12.9204 13.6666 13.6666 12.9204 13.6666 11.9999C13.6666 11.0794 12.9204 10.3333 11.9999 10.3333C11.0794 10.3333 10.3333 11.0794 10.3333 11.9999C10.3333 12.9204 11.0794 13.6666 11.9999 13.6666Z"/>
</svg>
