<svg viewBox="0 0 24 24" xmlns="http://www.w3.org/2000/svg">
<path fill="currentColor" stroke="currentColor" stroke-linecap="round" stroke-linejoin="round" d="M13.6666 14.2999V4.91659C13.6666 4.36405 13.4471 3.83415 13.0564 3.44345C12.6657 3.05275 12.1358 2.83325 11.5833 2.83325C11.0307 2.83325 10.5008 3.05275 10.1101 3.44345C9.71941 3.83415 9.49992 4.36405 9.49992 4.91659V14.2999C8.83098 14.7469 8.32352 15.3971 8.05248 16.1546C7.78144 16.9121 7.76119 17.7366 7.99472 18.5065C8.22825 19.2764 8.70318 19.9507 9.34937 20.43C9.99555 20.9092 10.7787 21.168 11.5833 21.168C12.3878 21.168 13.1709 20.9092 13.8171 20.43C14.4633 19.9507 14.9383 19.2764 15.1718 18.5065C15.4053 17.7366 15.3851 16.9121 15.114 16.1546C14.843 15.3971 14.3355 14.7469 13.6666 14.2999Z"/>
</svg>
