<svg width="24" height="24" viewBox="0 0 24 24" fill="none" xmlns="http://www.w3.org/2000/svg">
<path d="M16.1667 12.8332L12.8334 20.3332C12.1703 20.3332 11.5344 20.0698 11.0656 19.601C10.5968 19.1322 10.3334 18.4963 10.3334 17.8332V14.4999H5.61669C5.3751 14.5026 5.13581 14.4528 4.91538 14.3539C4.69496 14.255 4.49868 14.1093 4.34014 13.927C4.18161 13.7446 4.0646 13.53 3.99724 13.298C3.92988 13.066 3.91377 12.8221 3.95003 12.5832L5.10003 5.08323C5.16029 4.68581 5.36216 4.32355 5.66844 4.06322C5.97471 3.80289 6.36475 3.66202 6.76669 3.66656H16.1667M16.1667 12.8332V3.66656M16.1667 12.8332H18.3917C18.8633 12.8416 19.3216 12.6764 19.6795 12.3692C20.0375 12.062 20.2701 11.634 20.3334 11.1666V5.33323C20.2701 4.86578 20.0375 4.43781 19.6795 4.13058C19.3216 3.82334 18.8633 3.65822 18.3917 3.66656H16.1667" stroke="black" stroke-width="1.25" stroke-linecap="round" stroke-linejoin="round"/>
</svg>
