<svg viewBox="0 0 24 24" xmlns="http://www.w3.org/2000/svg">
<path fill="currentColor" stroke="currentColor" stroke-linecap="round" stroke-linejoin="round" d="M7.83341 11.1667L11.1667 3.66675C11.8298 3.66675 12.4657 3.93014 12.9345 4.39898C13.4034 4.86782 13.6667 5.50371 13.6667 6.16675V9.50008H18.3834C18.625 9.49735 18.8643 9.54717 19.0847 9.6461C19.3051 9.74502 19.5014 9.89069 19.66 10.073C19.8185 10.2553 19.9355 10.4699 20.0029 10.702C20.0702 10.934 20.0863 11.1779 20.0501 11.4167L18.9001 18.9167C18.8398 19.3142 18.6379 19.6764 18.3317 19.9368C18.0254 20.1971 17.6354 20.338 17.2334 20.3334H7.83341M7.83341 11.1667V20.3334M7.83341 11.1667H5.33341C4.89139 11.1667 4.46746 11.3423 4.1549 11.6549C3.84234 11.9675 3.66675 12.3914 3.66675 12.8334V18.6667C3.66675 19.1088 3.84234 19.5327 4.1549 19.8453C4.46746 20.1578 4.89139 20.3334 5.33341 20.3334H7.83341"/>
</svg>
