<svg viewBox="0 0 24 24" xmlns="http://www.w3.org/2000/svg">
<path fill="currentColor" stroke="currentColor" stroke-linecap="round" stroke-linejoin="round" d="M14.2499 7.24994C14.0972 7.40572 14.0117 7.61515 14.0117 7.83328C14.0117 8.0514 14.0972 8.26083 14.2499 8.41661L15.5832 9.74994C15.739 9.90263 15.9484 9.98816 16.1665 9.98816C16.3847 9.98816 16.5941 9.90263 16.7499 9.74994L19.8915 6.60828C20.3106 7.53427 20.4374 8.56597 20.2553 9.5659C20.0731 10.5658 19.5905 11.4865 18.8718 12.2052C18.1531 12.9239 17.2324 13.4065 16.2325 13.5887C15.2326 13.7708 14.2009 13.644 13.2749 13.2249L7.51655 18.9833C7.18503 19.3148 6.73539 19.501 6.26655 19.501C5.79771 19.501 5.34807 19.3148 5.01655 18.9833C4.68503 18.6518 4.49878 18.2021 4.49878 17.7333C4.49878 17.2644 4.68503 16.8148 5.01655 16.4833L10.7749 10.7249C10.3558 9.79895 10.229 8.76725 10.4112 7.76732C10.5934 6.7674 11.076 5.84674 11.7946 5.12804C12.5133 4.40935 13.434 3.92675 14.4339 3.74456C15.4339 3.56237 16.4656 3.68925 17.3915 4.10828L14.2582 7.24161L14.2499 7.24994Z"/>
</svg>
