<svg viewBox="0 0 24 24" xmlns="http://www.w3.org/2000/svg">
<path fill="currentColor" stroke="currentColor" stroke-linecap="round" stroke-linejoin="round" d="M4.5 7H6.16667H19.5"/>
<path fill="currentColor" stroke="currentColor" stroke-linecap="round" stroke-linejoin="round" d="M17.8334 7.00008V18.6667C17.8334 19.1088 17.6578 19.5327 17.3453 19.8453C17.0327 20.1578 16.6088 20.3334 16.1667 20.3334H7.83341C7.39139 20.3334 6.96746 20.1578 6.6549 19.8453C6.34234 19.5327 6.16675 19.1088 6.16675 18.6667V7.00008M8.66675 7.00008V5.33341C8.66675 4.89139 8.84234 4.46746 9.1549 4.1549C9.46746 3.84234 9.89139 3.66675 10.3334 3.66675H13.6667C14.1088 3.66675 14.5327 3.84234 14.8453 4.1549C15.1578 4.46746 15.3334 4.89139 15.3334 5.33341V7.00008"/>
</svg>
