<svg viewBox="0 0 24 24" xmlns="http://www.w3.org/2000/svg">
<path fill="currentColor" stroke="currentColor" stroke-linecap="round" stroke-linejoin="round" d="M10.5749 5.21659L3.51656 16.9999C3.37104 17.2519 3.29403 17.5377 3.29322 17.8287C3.2924 18.1197 3.3678 18.4059 3.51192 18.6587C3.65603 18.9115 3.86383 19.1222 4.11465 19.2698C4.36547 19.4174 4.65056 19.4967 4.94156 19.4999H19.0582C19.3492 19.4967 19.6343 19.4174 19.8851 19.2698C20.136 19.1222 20.3438 18.9115 20.4879 18.6587C20.632 18.4059 20.7074 18.1197 20.7066 17.8287C20.7058 17.5377 20.6288 17.2519 20.4832 16.9999L13.4249 5.21659C13.2763 4.97168 13.0672 4.76919 12.8176 4.62866C12.568 4.48813 12.2863 4.41431 11.9999 4.41431C11.7134 4.41431 11.4318 4.48813 11.1822 4.62866C10.9326 4.76919 10.7235 4.97168 10.5749 5.21659Z"/>
</svg>
