<svg width="24" height="24" viewBox="0 0 24 24" fill="none" xmlns="http://www.w3.org/2000/svg">
<path d="M21.1666 4.50008C20.3686 5.06298 19.485 5.4935 18.5499 5.77508C18.048 5.198 17.381 4.78899 16.6391 4.60335C15.8972 4.41771 15.1162 4.46441 14.4017 4.73712C13.6871 5.00984 13.0736 5.49541 12.6441 6.12818C12.2145 6.76094 11.9897 7.51036 11.9999 8.27508V9.10841C10.5354 9.14639 9.08431 8.82159 7.77576 8.16295C6.4672 7.50431 5.34185 6.53228 4.49992 5.33341C4.49992 5.33341 1.16659 12.8334 8.66658 16.1667C6.95036 17.3317 4.90588 17.9159 2.83325 17.8334C10.3333 22.0001 19.4999 17.8334 19.4999 8.25008C19.4991 8.01796 19.4768 7.78641 19.4333 7.55841C20.2838 6.71966 20.8839 5.66067 21.1666 4.50008Z" stroke="black" stroke-width="1.25" stroke-linecap="round" stroke-linejoin="round"/>
</svg>
