<svg viewBox="0 0 24 24" xmlns="http://www.w3.org/2000/svg">
<path fill="currentColor" stroke="currentColor" stroke-linecap="round" stroke-linejoin="round" d="M15.3334 15.3333L12.0001 12L8.66675 15.3333"/>
<path fill="currentColor" stroke="currentColor" stroke-linecap="round" stroke-linejoin="round" d="M12 12V19.5"/>
<path fill="currentColor" stroke="currentColor" stroke-linecap="round" stroke-linejoin="round" d="M18.9916 17.3249C19.8044 16.8818 20.4465 16.1806 20.8165 15.3321C21.1866 14.4835 21.2635 13.5359 21.0351 12.6388C20.8068 11.7417 20.2862 10.9462 19.5555 10.3778C18.8248 9.80939 17.9257 9.50052 17 9.4999H15.95C15.6977 8.52427 15.2276 7.61852 14.5749 6.85073C13.9222 6.08295 13.104 5.47311 12.1817 5.06708C11.2594 4.66104 10.2571 4.46937 9.25006 4.50647C8.24304 4.54358 7.25752 4.80849 6.36761 5.28129C5.47771 5.7541 4.70656 6.42249 4.11215 7.23622C3.51774 8.04996 3.11554 8.98785 2.93578 9.9794C2.75602 10.9709 2.80339 11.9903 3.07431 12.961C3.34523 13.9316 3.83267 14.8281 4.49997 15.5832"/>
<path fill="currentColor" stroke="currentColor" stroke-linecap="round" stroke-linejoin="round" d="M15.3334 15.3333L12.0001 12L8.66675 15.3333"/>
</svg>
