<svg width="24" height="24" viewBox="0 0 24 24" fill="none" xmlns="http://www.w3.org/2000/svg">
<path d="M15.3333 15.3334V16.1667C15.3333 16.6088 15.1577 17.0327 14.8451 17.3453C14.5325 17.6578 14.1086 17.8334 13.6666 17.8334H4.49992C4.05789 17.8334 3.63397 17.6578 3.32141 17.3453C3.00885 17.0327 2.83325 16.6088 2.83325 16.1667V7.83341C2.83325 7.39139 3.00885 6.96746 3.32141 6.6549C3.63397 6.34234 4.05789 6.16675 4.49992 6.16675H6.16658M10.8833 6.16675H13.6666C14.1086 6.16675 14.5325 6.34234 14.8451 6.6549C15.1577 6.96746 15.3333 7.39139 15.3333 7.83341V10.6167L16.1666 11.4501L21.1666 7.83341V16.1667" stroke="black" stroke-width="1.25" stroke-linecap="round" stroke-linejoin="round"/>
<path d="M2.83325 2.83325L21.1666 21.1666" stroke="black" stroke-width="1.25" stroke-linecap="round" stroke-linejoin="round"/>
</svg>
