<svg width="24" height="24" viewBox="0 0 24 24" fill="none" xmlns="http://www.w3.org/2000/svg">
<path d="M12.0001 17.8334C15.2217 17.8334 17.8334 15.2217 17.8334 12.0001C17.8334 8.77842 15.2217 6.16675 12.0001 6.16675C8.77842 6.16675 6.16675 8.77842 6.16675 12.0001C6.16675 15.2217 8.77842 17.8334 12.0001 17.8334Z" stroke="black" stroke-width="1.25" stroke-linecap="round" stroke-linejoin="round"/>
<path d="M12 9.5V12L13.25 13.25" stroke="black" stroke-width="1.25" stroke-linecap="round" stroke-linejoin="round"/>
<path d="M15.7584 16.4583L15.4667 19.6499C15.4292 20.0655 15.2371 20.4518 14.9286 20.7326C14.62 21.0134 14.2173 21.1683 13.8001 21.1666H10.1917C9.77451 21.1683 9.37182 21.0134 9.06323 20.7326C8.75465 20.4518 8.56261 20.0655 8.52507 19.6499L8.2334 16.4583M8.24173 7.5416L8.5334 4.34993C8.57082 3.93583 8.76167 3.55067 9.06849 3.27006C9.37531 2.98945 9.77594 2.83366 10.1917 2.83327H13.8167C14.234 2.83157 14.6366 2.98643 14.9452 3.26724C15.2538 3.54806 15.4459 3.9344 15.4834 4.34993L15.7751 7.5416" stroke="black" stroke-width="1.25" stroke-linecap="round" stroke-linejoin="round"/>
</svg>
