<svg width="24" height="24" viewBox="0 0 24 24" fill="none" xmlns="http://www.w3.org/2000/svg">
<path d="M2.83325 2.83325L21.1666 21.1666" stroke="black" stroke-width="1.25" stroke-linecap="round" stroke-linejoin="round"/>
<path d="M15.9333 11.2166C16.6159 11.5497 17.2542 11.9668 17.8334 12.4582" stroke="black" stroke-width="1.25" stroke-linecap="round" stroke-linejoin="round"/>
<path d="M6.16675 12.4582C7.40182 11.4256 8.88831 10.7384 10.4751 10.4666" stroke="black" stroke-width="1.25" stroke-linecap="round" stroke-linejoin="round"/>
<path d="M10.925 6.20836C12.7104 6.0645 14.5064 6.28183 16.2059 6.84738C17.9054 7.41292 19.4736 8.31509 20.8167 9.50003" stroke="black" stroke-width="1.25" stroke-linecap="round" stroke-linejoin="round"/>
<path d="M3.18335 9.5001C4.33932 8.47831 5.66476 7.66612 7.10002 7.1001" stroke="black" stroke-width="1.25" stroke-linecap="round" stroke-linejoin="round"/>
<path d="M9.1084 15.4249C9.9544 14.8239 10.9665 14.501 12.0042 14.501C13.042 14.501 14.0541 14.8239 14.9001 15.4249" stroke="black" stroke-width="1.25" stroke-linecap="round" stroke-linejoin="round"/>
<path d="M12 18.6667H12.0083" stroke="black" stroke-width="1.25" stroke-linecap="round" stroke-linejoin="round"/>
</svg>
