<svg viewBox="0 0 24 24" xmlns="http://www.w3.org/2000/svg">
<path fill="currentColor" stroke="currentColor" stroke-linecap="round" stroke-linejoin="round" d="M9.99175 5.8249C10.1853 5.63017 10.424 5.48627 10.6866 5.40602C10.9492 5.32577 11.2276 5.31164 11.497 5.3649C11.7664 5.41815 12.0184 5.53714 12.2307 5.71128C12.443 5.88541 12.609 6.10931 12.7139 6.36306C12.8189 6.61682 12.8595 6.89256 12.8321 7.16579C12.8048 7.43902 12.7104 7.70126 12.5573 7.9292C12.4042 8.15715 12.1971 8.34373 11.9545 8.47237C11.712 8.60101 11.4413 8.66772 11.1667 8.66657H3.66675M12.4917 18.1749C12.6853 18.3696 12.924 18.5135 13.1866 18.5938C13.4492 18.674 13.7276 18.6882 13.997 18.6349C14.2664 18.5817 14.5184 18.4627 14.7307 18.2885C14.943 18.1144 15.109 17.8905 15.2139 17.6367C15.3189 17.383 15.3595 17.1072 15.3321 16.834C15.3048 16.5608 15.2104 16.2985 15.0573 16.0706C14.9042 15.8427 14.6971 15.6561 14.4545 15.5274C14.212 15.3988 13.9413 15.3321 13.6667 15.3332H3.66675M16.7751 8.44157C17.0175 8.19981 17.3157 8.0215 17.6434 7.92241C17.971 7.82333 18.3181 7.80652 18.6538 7.87348C18.9895 7.94043 19.3036 8.08909 19.5682 8.30629C19.8328 8.5235 20.0398 8.80257 20.1709 9.11881C20.302 9.43506 20.3531 9.77873 20.3198 10.1194C20.2865 10.4602 20.1697 10.7874 19.9798 11.0722C19.7899 11.3571 19.5327 11.5907 19.231 11.7525C18.9293 11.9143 18.5924 11.9993 18.2501 11.9999H3.66675"/>
</svg>
