<svg viewBox="0 0 24 24" xmlns="http://www.w3.org/2000/svg">
<path fill="currentColor" stroke="currentColor" stroke-linecap="round" stroke-linejoin="round" d="M20.7832 7.34992C20.6843 6.95443 20.4826 6.59206 20.1988 6.29942C19.9149 6.00679 19.5589 5.79424 19.1666 5.68325C17.7332 5.33325 11.9999 5.33325 11.9999 5.33325C11.9999 5.33325 6.26657 5.33325 4.83324 5.71659C4.44095 5.82757 4.08489 6.04012 3.80103 6.33276C3.51717 6.6254 3.31556 6.98776 3.21657 7.38325C2.95425 8.83788 2.82594 10.3135 2.83324 11.7916C2.82389 13.2808 2.95221 14.7677 3.21657 16.2333C3.32571 16.6165 3.53183 16.965 3.81503 17.2453C4.09822 17.5256 4.44892 17.7281 4.83324 17.8333C6.26657 18.2166 11.9999 18.2166 11.9999 18.2166C11.9999 18.2166 17.7332 18.2166 19.1666 17.8333C19.5589 17.7223 19.9149 17.5097 20.1988 17.2171C20.4826 16.9244 20.6843 16.5621 20.7832 16.1666C21.0435 14.7229 21.1718 13.2585 21.1666 11.7916C21.1759 10.3024 21.0476 8.8155 20.7832 7.34992Z"/>
<path fill="currentColor" stroke="currentColor" stroke-linecap="round" stroke-linejoin="round" d="M10.125 14.5167L14.9167 11.7917L10.125 9.06665V14.5167Z"/>
</svg>
